<?xml version="1.0" encoding="UTF-8" standalone="no"?>
<!-- Created with Inkscape (http://www.inkscape.org/) -->

<svg
   xmlns:dc="http://purl.org/dc/elements/1.1/"
   xmlns:cc="http://creativecommons.org/ns#"
   xmlns:rdf="http://www.w3.org/1999/02/22-rdf-syntax-ns#"
   xmlns:svg="http://www.w3.org/2000/svg"
   xmlns="http://www.w3.org/2000/svg"
   xmlns:xlink="http://www.w3.org/1999/xlink"
   xmlns:sodipodi="http://sodipodi.sourceforge.net/DTD/sodipodi-0.dtd"
   xmlns:inkscape="http://www.inkscape.org/namespaces/inkscape"
   width="26.016926mm"
   height="30.883627mm"
   viewBox="0 0 92.185955 109.43017"
   id="svg2"
   version="1.1"
   inkscape:version="0.91 r13725"
   sodipodi:docname="Sieger-coloured.svg">
  <title
     id="title6872">winner - coloured</title>
  <defs
     id="defs4">
    <pattern
       inkscape:collect="always"
       xlink:href="#Polkadots-large-9"
       id="pattern5685-6"
       patternTransform="matrix(0.55128668,0,0,0.53360902,5.5021083e-6,1.239474e-6)" />
    <pattern
       inkscape:stockid="Polka dots, large"
       id="Polkadots-large-9"
       patternTransform="translate(0,0) scale(10,10)"
       height="10"
       width="10"
       patternUnits="userSpaceOnUse"
       inkscape:collect="always">
      <circle
         id="circle5375-2"
         r="0.45"
         cy="0.810"
         cx="2.567"
         style="fill:black;stroke:none" />
      <circle
         id="circle5377-1"
         r="0.45"
         cy="2.33"
         cx="3.048"
         style="fill:black;stroke:none" />
      <circle
         id="circle5379-8"
         r="0.45"
         cy="2.415"
         cx="4.418"
         style="fill:black;stroke:none" />
      <circle
         id="circle5381-6"
         r="0.45"
         cy="3.029"
         cx="1.844"
         style="fill:black;stroke:none" />
      <circle
         id="circle5383-9"
         r="0.45"
         cy="1.363"
         cx="6.08"
         style="fill:black;stroke:none" />
      <circle
         id="circle5385-8"
         r="0.45"
         cy="4.413"
         cx="5.819"
         style="fill:black;stroke:none" />
      <circle
         id="circle5387-7"
         r="0.45"
         cy="4.048"
         cx="4.305"
         style="fill:black;stroke:none" />
      <circle
         id="circle5389-7"
         r="0.45"
         cy="3.045"
         cx="5.541"
         style="fill:black;stroke:none" />
      <circle
         id="circle5391-7"
         r="0.45"
         cy="5.527"
         cx="4.785"
         style="fill:black;stroke:none" />
      <circle
         id="circle5393-3"
         r="0.45"
         cy="5.184"
         cx="2.667"
         style="fill:black;stroke:none" />
      <circle
         id="circle5395-5"
         r="0.45"
         cy="1.448"
         cx="7.965"
         style="fill:black;stroke:none" />
      <circle
         id="circle5397-1"
         r="0.45"
         cy="5.049"
         cx="7.047"
         style="fill:black;stroke:none" />
      <circle
         id="circle5399-6"
         r="0.45"
         cy="0.895"
         cx="4.340"
         style="fill:black;stroke:none" />
      <circle
         id="circle5401-1"
         r="0.45"
         cy="0.340"
         cx="7.125"
         style="fill:black;stroke:none" />
      <circle
         id="circle5403-3"
         r="0.45"
         cy="1.049"
         cx="9.553"
         style="fill:black;stroke:none" />
      <circle
         id="circle5405-7"
         r="0.45"
         cy="2.689"
         cx="7.006"
         style="fill:black;stroke:none" />
      <circle
         id="circle5407-2"
         r="0.45"
         cy="2.689"
         cx="8.909"
         style="fill:black;stroke:none" />
      <circle
         id="circle5409-5"
         r="0.45"
         cy="4.407"
         cx="9.315"
         style="fill:black;stroke:none" />
      <circle
         id="circle5411-5"
         r="0.45"
         cy="3.870"
         cx="7.820"
         style="fill:black;stroke:none" />
      <circle
         id="circle5413-6"
         r="0.45"
         cy="5.948"
         cx="8.270"
         style="fill:black;stroke:none" />
      <circle
         id="circle5415-6"
         r="0.45"
         cy="7.428"
         cx="7.973"
         style="fill:black;stroke:none" />
      <circle
         id="circle5417-5"
         r="0.45"
         cy="8.072"
         cx="9.342"
         style="fill:black;stroke:none" />
      <circle
         id="circle5419-0"
         r="0.45"
         cy="9.315"
         cx="8.206"
         style="fill:black;stroke:none" />
      <circle
         id="circle5421-8"
         r="0.45"
         cy="9.475"
         cx="9.682"
         style="fill:black;stroke:none" />
      <circle
         id="circle5423-9"
         r="0.45"
         cy="6.186"
         cx="9.688"
         style="fill:black;stroke:none" />
      <circle
         id="circle5425-9"
         r="0.45"
         cy="6.296"
         cx="3.379"
         style="fill:black;stroke:none" />
      <circle
         id="circle5427-0"
         r="0.45"
         cy="8.204"
         cx="2.871"
         style="fill:black;stroke:none" />
      <circle
         id="circle5429-5"
         r="0.45"
         cy="8.719"
         cx="4.59"
         style="fill:black;stroke:none" />
      <circle
         id="circle5431-6"
         r="0.45"
         cy="9.671"
         cx="3.181"
         style="fill:black;stroke:none" />
      <circle
         id="circle5433-7"
         r="0.45"
         cy="7.315"
         cx="5.734"
         style="fill:black;stroke:none" />
      <circle
         id="circle5435-7"
         r="0.45"
         cy="6.513"
         cx="6.707"
         style="fill:black;stroke:none" />
      <circle
         id="circle5437-0"
         r="0.45"
         cy="9.670"
         cx="5.730"
         style="fill:black;stroke:none" />
      <circle
         id="circle5439-0"
         r="0.45"
         cy="8.373"
         cx="6.535"
         style="fill:black;stroke:none" />
      <circle
         id="circle5441-7"
         r="0.45"
         cy="7.154"
         cx="4.37"
         style="fill:black;stroke:none" />
      <circle
         id="circle5443-6"
         r="0.45"
         cy="7.25"
         cx="0.622"
         style="fill:black;stroke:none" />
      <circle
         id="circle5445-1"
         r="0.45"
         cy="5.679"
         cx="0.831"
         style="fill:black;stroke:none" />
      <circle
         id="circle5447-5"
         r="0.45"
         cy="8.519"
         cx="1.257"
         style="fill:black;stroke:none" />
      <circle
         id="circle5449-6"
         r="0.45"
         cy="6.877"
         cx="1.989"
         style="fill:black;stroke:none" />
      <circle
         id="circle5451-9"
         r="0.45"
         cy="3.181"
         cx="0.374"
         style="fill:black;stroke:none" />
      <circle
         id="circle5453-4"
         r="0.45"
         cy="1.664"
         cx="1.166"
         style="fill:black;stroke:none" />
      <circle
         id="circle5455-1"
         r="0.45"
         cy="0.093"
         cx="1.151"
         style="fill:black;stroke:none" />
      <circle
         id="circle5457-6"
         r="0.45"
         cy="10.093"
         cx="1.151"
         style="fill:black;stroke:none" />
      <circle
         id="circle5459-5"
         r="0.45"
         cy="4.451"
         cx="1.302"
         style="fill:black;stroke:none" />
      <circle
         id="circle5461-8"
         r="0.45"
         cy="3.763"
         cx="3.047"
         style="fill:black;stroke:none" />
    </pattern>
    <pattern
       inkscape:collect="always"
       xlink:href="#Polkadots-large-7"
       id="pattern5777-0"
       patternTransform="matrix(0.55128668,0,0,0.63083617,5.5e-6,7.0928574e-6)" />
    <pattern
       inkscape:stockid="Polka dots, large"
       id="Polkadots-large-7"
       patternTransform="translate(0,0) scale(10,10)"
       height="10"
       width="10"
       patternUnits="userSpaceOnUse"
       inkscape:collect="always">
      <circle
         id="circle5375-9"
         r="0.45"
         cy="0.810"
         cx="2.567"
         style="fill:black;stroke:none" />
      <circle
         id="circle5377-8"
         r="0.45"
         cy="2.33"
         cx="3.048"
         style="fill:black;stroke:none" />
      <circle
         id="circle5379-2"
         r="0.45"
         cy="2.415"
         cx="4.418"
         style="fill:black;stroke:none" />
      <circle
         id="circle5381-7"
         r="0.45"
         cy="3.029"
         cx="1.844"
         style="fill:black;stroke:none" />
      <circle
         id="circle5383-4"
         r="0.45"
         cy="1.363"
         cx="6.08"
         style="fill:black;stroke:none" />
      <circle
         id="circle5385-9"
         r="0.45"
         cy="4.413"
         cx="5.819"
         style="fill:black;stroke:none" />
      <circle
         id="circle5387-8"
         r="0.45"
         cy="4.048"
         cx="4.305"
         style="fill:black;stroke:none" />
      <circle
         id="circle5389-4"
         r="0.45"
         cy="3.045"
         cx="5.541"
         style="fill:black;stroke:none" />
      <circle
         id="circle5391-9"
         r="0.45"
         cy="5.527"
         cx="4.785"
         style="fill:black;stroke:none" />
      <circle
         id="circle5393-9"
         r="0.45"
         cy="5.184"
         cx="2.667"
         style="fill:black;stroke:none" />
      <circle
         id="circle5395-4"
         r="0.45"
         cy="1.448"
         cx="7.965"
         style="fill:black;stroke:none" />
      <circle
         id="circle5397-4"
         r="0.45"
         cy="5.049"
         cx="7.047"
         style="fill:black;stroke:none" />
      <circle
         id="circle5399-63"
         r="0.45"
         cy="0.895"
         cx="4.340"
         style="fill:black;stroke:none" />
      <circle
         id="circle5401-3"
         r="0.45"
         cy="0.340"
         cx="7.125"
         style="fill:black;stroke:none" />
      <circle
         id="circle5403-6"
         r="0.45"
         cy="1.049"
         cx="9.553"
         style="fill:black;stroke:none" />
      <circle
         id="circle5405-4"
         r="0.45"
         cy="2.689"
         cx="7.006"
         style="fill:black;stroke:none" />
      <circle
         id="circle5407-0"
         r="0.45"
         cy="2.689"
         cx="8.909"
         style="fill:black;stroke:none" />
      <circle
         id="circle5409-55"
         r="0.45"
         cy="4.407"
         cx="9.315"
         style="fill:black;stroke:none" />
      <circle
         id="circle5411-7"
         r="0.45"
         cy="3.870"
         cx="7.820"
         style="fill:black;stroke:none" />
      <circle
         id="circle5413-3"
         r="0.45"
         cy="5.948"
         cx="8.270"
         style="fill:black;stroke:none" />
      <circle
         id="circle5415-61"
         r="0.45"
         cy="7.428"
         cx="7.973"
         style="fill:black;stroke:none" />
      <circle
         id="circle5417-4"
         r="0.45"
         cy="8.072"
         cx="9.342"
         style="fill:black;stroke:none" />
      <circle
         id="circle5419-4"
         r="0.45"
         cy="9.315"
         cx="8.206"
         style="fill:black;stroke:none" />
      <circle
         id="circle5421-9"
         r="0.45"
         cy="9.475"
         cx="9.682"
         style="fill:black;stroke:none" />
      <circle
         id="circle5423-4"
         r="0.45"
         cy="6.186"
         cx="9.688"
         style="fill:black;stroke:none" />
      <circle
         id="circle5425-1"
         r="0.45"
         cy="6.296"
         cx="3.379"
         style="fill:black;stroke:none" />
      <circle
         id="circle5427-1"
         r="0.45"
         cy="8.204"
         cx="2.871"
         style="fill:black;stroke:none" />
      <circle
         id="circle5429-1"
         r="0.45"
         cy="8.719"
         cx="4.59"
         style="fill:black;stroke:none" />
      <circle
         id="circle5431-2"
         r="0.45"
         cy="9.671"
         cx="3.181"
         style="fill:black;stroke:none" />
      <circle
         id="circle5433-9"
         r="0.45"
         cy="7.315"
         cx="5.734"
         style="fill:black;stroke:none" />
      <circle
         id="circle5435-3"
         r="0.45"
         cy="6.513"
         cx="6.707"
         style="fill:black;stroke:none" />
      <circle
         id="circle5437-03"
         r="0.45"
         cy="9.670"
         cx="5.730"
         style="fill:black;stroke:none" />
      <circle
         id="circle5439-3"
         r="0.45"
         cy="8.373"
         cx="6.535"
         style="fill:black;stroke:none" />
      <circle
         id="circle5441-0"
         r="0.45"
         cy="7.154"
         cx="4.37"
         style="fill:black;stroke:none" />
      <circle
         id="circle5443-9"
         r="0.45"
         cy="7.25"
         cx="0.622"
         style="fill:black;stroke:none" />
      <circle
         id="circle5445-2"
         r="0.45"
         cy="5.679"
         cx="0.831"
         style="fill:black;stroke:none" />
      <circle
         id="circle5447-9"
         r="0.45"
         cy="8.519"
         cx="1.257"
         style="fill:black;stroke:none" />
      <circle
         id="circle5449-4"
         r="0.45"
         cy="6.877"
         cx="1.989"
         style="fill:black;stroke:none" />
      <circle
         id="circle5451-8"
         r="0.45"
         cy="3.181"
         cx="0.374"
         style="fill:black;stroke:none" />
      <circle
         id="circle5453-5"
         r="0.45"
         cy="1.664"
         cx="1.166"
         style="fill:black;stroke:none" />
      <circle
         id="circle5455-7"
         r="0.45"
         cy="0.093"
         cx="1.151"
         style="fill:black;stroke:none" />
      <circle
         id="circle5457-4"
         r="0.45"
         cy="10.093"
         cx="1.151"
         style="fill:black;stroke:none" />
      <circle
         id="circle5459-4"
         r="0.45"
         cy="4.451"
         cx="1.302"
         style="fill:black;stroke:none" />
      <circle
         id="circle5461-3"
         r="0.45"
         cy="3.763"
         cx="3.047"
         style="fill:black;stroke:none" />
    </pattern>
  </defs>
  <sodipodi:namedview
     id="base"
     pagecolor="#ffffff"
     bordercolor="#666666"
     borderopacity="1.0"
     inkscape:pageopacity="0.0"
     inkscape:pageshadow="2"
     inkscape:zoom="11.313708"
     inkscape:cx="38.290997"
     inkscape:cy="56.12223"
     inkscape:document-units="mm"
     inkscape:current-layer="layer2"
     showgrid="false"
     inkscape:window-width="1524"
     inkscape:window-height="982"
     inkscape:window-x="292"
     inkscape:window-y="64"
     inkscape:window-maximized="0"
     inkscape:snap-global="false"
     showguides="false"
     fit-margin-top="1"
     fit-margin-bottom="1"
     fit-margin-right="1"
     fit-margin-left="1" />
  <metadata
     id="metadata7">
    <rdf:RDF>
      <cc:Work
         rdf:about="">
        <dc:format>image/svg+xml</dc:format>
        <dc:type
           rdf:resource="http://purl.org/dc/dcmitype/StillImage" />
        <dc:title>winner - coloured</dc:title>
        <dc:date>2015-06-06</dc:date>
        <dc:creator>
          <cc:Agent>
            <dc:title>Frank Tremmel</dc:title>
          </cc:Agent>
        </dc:creator>
        <dc:subject>
          <rdf:Bag>
            <rdf:li>winner</rdf:li>
            <rdf:li>win</rdf:li>
            <rdf:li>first</rdf:li>
            <rdf:li>boy</rdf:li>
            <rdf:li>Sieger</rdf:li>
            <rdf:li>Gewinner</rdf:li>
            <rdf:li>Erster</rdf:li>
            <rdf:li>Junge</rdf:li>
            <rdf:li>line art</rdf:li>
            <rdf:li>outline</rdf:li>
          </rdf:Bag>
        </dc:subject>
        <dc:description>coloured line art winner</dc:description>
        <cc:license
           rdf:resource="http://creativecommons.org/publicdomain/zero/1.0/" />
      </cc:Work>
      <cc:License
         rdf:about="http://creativecommons.org/publicdomain/zero/1.0/">
        <cc:permits
           rdf:resource="http://creativecommons.org/ns#Reproduction" />
        <cc:permits
           rdf:resource="http://creativecommons.org/ns#Distribution" />
        <cc:permits
           rdf:resource="http://creativecommons.org/ns#DerivativeWorks" />
      </cc:License>
    </rdf:RDF>
  </metadata>
  <g
     inkscape:groupmode="layer"
     id="layer2"
     inkscape:label="Ebene 2"
     transform="translate(-7.2594269,1.8913524)">
    <path
       style="fill:#ff8080;fill-rule:evenodd;stroke:#66ff00;stroke-width:0.29055119;stroke-linecap:butt;stroke-linejoin:miter;stroke-miterlimit:4;stroke-dasharray:none;stroke-opacity:1"
       d="m 68.59375,82.642963 17.71875,-0.4375 8.28125,14.5625 -24.40625,-0.28125 0.03125,-5.96875 z"
       id="path4186"
       inkscape:connector-curvature="0" />
    <path
       style="fill:#ffaaaa;fill-rule:evenodd;stroke:#44aa00;stroke-width:0.29055119;stroke-linecap:butt;stroke-linejoin:miter;stroke-miterlimit:4;stroke-dasharray:none;stroke-opacity:1"
       d="m 70.25,103.79921 -0.0625,-7.499997 24.5625,0.5 -0.09375,7.093747"
       id="path4190"
       inkscape:connector-curvature="0"
       sodipodi:nodetypes="cccc" />
    <path
       style="fill:#ffaaaa;fill-rule:evenodd;stroke:#88aa00;stroke-width:0.29055119;stroke-linecap:butt;stroke-linejoin:miter;stroke-miterlimit:4;stroke-dasharray:none;stroke-opacity:1"
       d="m 11.6875,103.95546 0.15625,-5.624997 24.4375,-0.0625 -0.0625,5.593747"
       id="path4196"
       inkscape:connector-curvature="0"
       sodipodi:nodetypes="cccc" />
    <path
       style="fill:#ff8080;fill-rule:evenodd;stroke:#66ff00;stroke-width:0.29055119;stroke-linecap:butt;stroke-linejoin:miter;stroke-miterlimit:4;stroke-dasharray:none;stroke-opacity:1"
       d="m 37.65625,84.361713 -18.1875,-0.125 -7.53125,14.09375 24.28125,-0.25 -0.15625,-7.1875 z"
       id="path4194"
       inkscape:connector-curvature="0" />
    <path
       style="fill:#ff8080;fill-rule:evenodd;stroke:#ccff00;stroke-width:0.35433072;stroke-linecap:butt;stroke-linejoin:miter;stroke-miterlimit:4;stroke-dasharray:none;stroke-opacity:1"
       d="m 39.8125,75.486713 -3.59375,15.46875 33.84375,-0.53125 -3.28125,-15.5 z"
       id="path4184"
       inkscape:connector-curvature="0" />
    <path
       style="fill:#ffaaaa;fill-rule:evenodd;stroke:#cdde87;stroke-width:0.29055119;stroke-linecap:butt;stroke-linejoin:miter;stroke-miterlimit:4;stroke-dasharray:none;stroke-opacity:1"
       d="M 36.15625,103.89296 36.21875,91.017963 70,90.611713 70.21875,103.79921"
       id="path4192"
       inkscape:connector-curvature="0" />
    <path
       style="color:#000000;font-style:normal;font-variant:normal;font-weight:normal;font-stretch:normal;font-size:medium;line-height:normal;font-family:sans-serif;text-indent:0;text-align:start;text-decoration:none;text-decoration-line:none;text-decoration-style:solid;text-decoration-color:#000000;letter-spacing:normal;word-spacing:normal;text-transform:none;direction:ltr;block-progression:tb;writing-mode:lr-tb;baseline-shift:baseline;text-anchor:start;white-space:normal;clip-rule:nonzero;display:inline;overflow:visible;visibility:visible;opacity:1;isolation:auto;mix-blend-mode:normal;color-interpolation:sRGB;color-interpolation-filters:linearRGB;solid-color:#000000;solid-opacity:1;fill:#782121;fill-opacity:1;fill-rule:evenodd;stroke:none;stroke-width:1.77165353;stroke-linecap:butt;stroke-linejoin:miter;stroke-miterlimit:4;stroke-dasharray:none;stroke-dashoffset:0;stroke-opacity:1;color-rendering:auto;image-rendering:auto;shape-rendering:auto;text-rendering:auto;enable-background:accumulate"
       d="M 67.242188,74.1875 C 58.02249,74.1783 48.632989,74.508761 39.164062,74.998047 l 0.09766,1.427734 c 9.225594,-0.411843 18.433275,-0.69829 27.576172,-0.53125 z"
       id="path4419"
       inkscape:connector-curvature="0"
       sodipodi:nodetypes="ccccc" />
    <path
       style="fill:#ffe6d5;fill-rule:evenodd;stroke:none;stroke-width:0.29055119;stroke-linecap:butt;stroke-linejoin:miter;stroke-miterlimit:4;stroke-dasharray:none;stroke-opacity:1"
       d="m 57.625,14.611709 c 0.154541,1.069092 0.479491,2.104102 0.25,3.25 l 0.75,1.1875 c -0.530431,1.99801 -1.138466,3.937818 -2,5.6875 -0.708333,1.25 -1.458333,2 -2.25,2.25 -0.127259,1.090989 -1.201782,1.897799 -2.125,2.75 l 5.1875,-0.625 2.8125,2.25 2.9375,3.75 3.25,1.1875 -0.0625,1.4375 6.5,2.875 2.5,1.0625 2.375,0.375 -0.125,3.25 0.0625,2.1875 -0.9375,2.5625 c -0.601076,0.01904 -0.830458,0.65757 -1.875,-0.0625 -0.523793,0.923863 -1.185639,1.405956 -2.125,1 -0.919516,1.782231 -1.139296,0.765519 -1.6875,1.0625 -0.594829,0.58431 -0.973844,1.54139 -2.4375,0.625 -0.854644,-1.301367 -1.340191,-3.15638 -1.875,-4.9375 l 0.5,-1.9375 0.4375,-0.53125 -4.1875,-1.96875 -1.375,-1 c -2.155001,0.490215 -3.833843,-1.757487 -5.6875,-3 l -0.25,2.125 1.5625,6.0625 0.53125,3.25 -0.71875,2.625 1.625,5.75 -1.125,2.562501 c 0.642798,2.564538 -0.36548,4.494046 -0.6875,6.6875 l 0.375,1.75 c 1.05e-4,0.652795 -0.378361,1.242495 -0.875,1.8125 l -0.4375,5.625 0.6875,-0.625 2.375,1.25 1.3125,1.4375 3.0625,0.8125 c 0.854113,0.482701 1.52018,1.18479 1.875,2.25 l -2.6875,2.75 L 60,85.04921 c -0.751301,-0.128903 -1.613726,-0.591177 -2.53125,-1.21875 l -1.65625,0.03125 -3.5625,-1.0625 -0.5,-1.8125 0.375,-3.1875 0.8125,0.3125 -1.1875,-4.25 0.5625,-3.4375 c -1.221033,-0.782453 -1.697424,-2.62868 -2.375,-4.1875 l 0.3125,-3.9375 -0.8125,-0.125 -1.4375,2.375 c 0.347073,2.166667 0.372212,4.333333 -0.6875,6.5 0.889257,1.554657 -0.04789,2.266357 -0.125,3.375 l 1,3.25 0.875,0.375 1.125,2.8125 -0.3125,4 c -0.400449,1.290623 -1.061844,2.41519 -2.375,3.125 l -3.25,0.0625 c -0.795046,-0.507117 -1.286525,-0.545084 -2.9375,-2.375 l -0.625,-4.6875 c 0.0846,-0.480437 0.06092,-0.852588 0.375,-1.5625 0.359488,-0.62455 0.744953,-1.145186 1.1875,-1.4375 l 0.125,-2.875 -1.3125,-2.0625 L 41,71.42421 c -1.601762,-1.979167 -1.806672,-3.958333 -1.9375,-5.9375 l -1.625,-0.5 0.125,-0.75 1.25,-2.6875 -1.375,-3.250001 0.8125,-3.0625 -0.5625,-0.8125 1.125,-7.8125 -0.125,-4.375 -1,-3.875 -3,-1.5 c -0.927358,-0.20621 -2.700624,-1.892758 -4.25,-3.1875 -0.852912,-0.709337 -0.416452,-2.050172 -0.5,-3.375 L 25.5,28.361709 c -1.599326,-0.641944 -2.77385,-2.770693 -4.0625,-4.5 l -1.5,-2 c -1.1875,0.192786 -2.375,-0.522511 -3.5625,-1.3125 l -2.4375,-0.6875 c -1.045615,-0.510777 -0.680044,-1.424749 -0.625,-2.25 l 1,-3.4375 0.875,-2.1875 1.6875,-0.0625 1.0625,-1.25 1.6875,0.1875 1.75,2.0625 2.0625,-0.3125 2.125,2.3125 -0.6875,2.75 -2,1.1875 4.4375,2.8125 3.1875,2.3125 1.3125,2.5 2.0625,-0.5625 5.625,3.875 2.5,-2.25 -0.1875,-1.875 -1.25,-1.75 c -0.123123,-0.513701 -0.391474,-0.773254 -0.75,-0.875 l -1.3125,0.5625 -0.625,-0.5625 -0.375,-1.25 -1.0625,0 c -1.038722,-1.314785 -2.102042,-2.088418 -3.0625,-5.125 -0.48607,-2.756954 -0.775916,-5.616742 0.53125,-8.7812496 1.647222,-1.9576391 2.907855,-3.6241975 6.15625,-4.78125 2.129199,-0.7533921 4.05372,-0.6633635 5.375,-0.4375 l 2.125,0.9375 1.875,-1.3125 c 2.234095,-0.2587414 4.168811,0.047799 6.25,1.5 1.526732,1.4702756 2.73964,3.1578132 3.1875,5.375 0.260043,1.6795936 0.262808,3.2948686 -1.125,4.5624996 -0.225447,0.230407 -0.25299,0.526781 -0.125,0.875 z"
       id="path4566"
       inkscape:connector-curvature="0"
       sodipodi:nodetypes="ccccccccccccccccccccccccccccccccccccccccccccccccccccccccccccccccccccccccccccccccccccccccccccccccccccccccccccccccccccccccccc" />
    <path
       style="fill:#cbdbff;fill-rule:evenodd;stroke:#0000ff;stroke-width:0.29055116;stroke-linecap:butt;stroke-linejoin:miter;stroke-miterlimit:4;stroke-dasharray:none;stroke-opacity:1;fill-opacity:1"
       d="m 29.978177,30.351322 -0.1875,2.15625 c 0.907819,1.529398 1.925931,2.562478 3,3.34375 l 4.59375,2.34375 c 0.880275,1.46875 1.459784,2.9375 1.34375,4.40625 l 0,4.5625 -1.1875,6.84375 0.5,1.09375 6.0625,-1.6875 6.78125,-1.375 4.9375,-0.9375 1.6875,-0.3125 0.84375,-1.15625 -2.09375,-8.1875 0.40625,-1.96875 3.8125,2.90625 2.25,-0.46875 5.90625,-5.15625 -5.1875,-1.75 -3.46875,-3.5 -1.8125,-2.15625 -3.65625,0.21875 c -2.017377,0.114512 -4.097442,-0.05307 -6.28125,-0.6875 l -7.28125,-0.5625 -1.375,1.53125 -4.53125,-3.625 c -1.123436,-0.42968 -2.10353,-0.142651 -3.0625,0.25 l 1.59375,1.1875 2.125,0.59375 c 0.358631,1.538542 -0.481696,2.237813 -0.875,3.25 -0.930097,1.216568 -1.915478,2.138286 -3.09375,2.03125 l -0.65625,-2.40625 z"
       id="path6499"
       inkscape:connector-curvature="0"
       sodipodi:nodetypes="ccccccccccccccccccccccccccccccccc" />
    <path
       style="color:#000000;font-style:normal;font-variant:normal;font-weight:normal;font-stretch:normal;font-size:medium;line-height:normal;font-family:sans-serif;text-indent:0;text-align:start;text-decoration:none;text-decoration-line:none;text-decoration-style:solid;text-decoration-color:#000000;letter-spacing:normal;word-spacing:normal;text-transform:none;direction:ltr;block-progression:tb;writing-mode:lr-tb;baseline-shift:baseline;text-anchor:start;white-space:normal;clip-rule:nonzero;display:inline;overflow:visible;visibility:visible;opacity:1;isolation:auto;mix-blend-mode:normal;color-interpolation:sRGB;color-interpolation-filters:linearRGB;solid-color:#000000;solid-opacity:1;fill:#deaa87;fill-opacity:1;fill-rule:evenodd;stroke:none;stroke-width:1.77165353;stroke-linecap:butt;stroke-linejoin:miter;stroke-miterlimit:4;stroke-dasharray:none;stroke-dashoffset:0;stroke-opacity:1;color-rendering:auto;image-rendering:auto;shape-rendering:auto;text-rendering:auto;enable-background:accumulate"
       d="m 66.256787,38.893758 c 1.481596,0.04459 2.682065,0.650313 3.960832,1.425753 1.037303,0.629017 1.840443,0.475771 2.893865,1.078287 0.58559,0.334933 1.185666,0.377178 1.373955,0.563946 0.6846,0.510132 1.754377,0.126266 2.311969,0.667751 0.818293,0.794655 -0.03784,2.322842 8.08e-4,3.451334 0.03702,1.080693 0.381446,1.815746 0.05198,2.492444 -0.339701,0.697711 -0.304759,0.788445 -1.023307,1.181078 -0.680387,0.37178 -1.016314,-0.264698 -1.430663,-0.40536 -0.07073,0.549877 -0.211826,0.75377 -0.683363,1.003122 -0.381694,0.201844 -0.832485,-0.02875 -1.153757,-0.222348 0.0039,0.363318 -0.120285,0.814135 -0.643562,1.140455 -0.351557,0.219215 -0.785054,0.162466 -1.217442,0.03525 -0.179631,0.446682 -0.144113,0.691367 -0.615968,0.849865 -0.959053,0.32215 -1.913308,-1.436106 -2.240661,-2.446858 -0.156444,-0.483043 -0.342521,-2.064522 0.70459,-1.868677 0.375122,0.688861 0.574965,1.580061 1.078374,2.194445 0.649871,0.793133 1.105144,0.575275 0.731337,-0.162613 -0.418192,-0.825503 -0.628582,-1.317353 -0.980026,-2.198496 -0.269469,-0.685522 -1.971885,-1.422782 -2.170834,0.239514 -0.220296,-1.630167 0.607622,-2.451404 1.625615,-2.747592 -2.168513,-1.046939 -4.858811,-1.600218 -6.435085,-3.515641 -0.528688,0.13267 -0.544097,0.404632 -0.786262,0.892963 1.229195,1.396423 4.096562,2.156567 5.761707,2.937485 -0.757759,0.669617 -1.018498,1.875522 -0.812469,2.792246 0.341289,1.518558 0.885189,2.598961 1.757107,3.940385 0.553763,0.796122 1.301658,1.073685 1.859586,1.0023 0.183256,-0.02345 0.739397,-0.364173 1.000869,-0.769429 0.451354,0.136021 1.0429,0.211834 1.347755,0.03765 0.270348,-0.154467 0.35294,-0.304097 0.628021,-0.955302 0.367881,0.119386 0.682377,0.193364 1.052781,0.06198 0.354706,-0.125818 0.751651,-0.46785 0.748478,-1.042364 0.62124,0.260459 1.013864,0.467179 1.505908,0.254852 0.565697,-0.24411 0.909235,-0.803787 1.183739,-1.543054 0.208104,-0.560445 0.133662,-0.744909 0.209183,-1.77007 0.03133,-0.425302 -0.173848,-1.321813 -0.193221,-1.691459 -0.07246,-1.382253 0.859589,-2.911913 -0.104247,-3.991979 -0.650503,-0.728949 -1.390811,-0.303472 -2.187258,-0.670023 -0.705338,-0.479353 -1.498684,-0.820158 -2.246803,-1.238816 -1.43315,-0.80201 -2.839745,-1.703929 -4.454375,-2.114314 -0.818187,-0.207956 -1.65636,-0.302213 -2.075772,-0.333884 z"
       id="path4288"
       inkscape:connector-curvature="0"
       sodipodi:nodetypes="csscsssscscscsscssccccccscscscscssssscsscc" />
    <path
       style="fill:#000080;fill-opacity:1;fill-rule:evenodd;stroke:#0000ff;stroke-width:0.29055116;stroke-linecap:butt;stroke-linejoin:miter;stroke-miterlimit:4;stroke-dasharray:none;stroke-opacity:1"
       d="m 38.040677,55.663824 c -0.870228,2.463729 -0.05948,4.20704 0.78125,5.9375 l -1.25,2.625 c -0.203758,0.899666 0.260523,1.252754 0.96875,1.40625 3.369444,0.05 6.777513,-0.247618 10.3125,-1.6875 l 0.59375,-2.78125 c 0.308672,0.772198 0.913928,1.371389 2.21875,1.5625 2.302598,0.109823 4.580845,-0.04821 6.71875,-1.75 0.646966,-0.380803 0.730394,-1.113816 0.71875,-1.90625 l -1.4375,-4.53125 0.4375,-3.8125 -10.40625,1.9375 z"
       id="path4204"
       inkscape:connector-curvature="0"
       sodipodi:nodetypes="ccccccccccccc" />
    <path
       style="fill:#e6e6e6;fill-rule:evenodd;stroke:#ffcc00;stroke-width:0.1062992;stroke-linecap:butt;stroke-linejoin:miter;stroke-miterlimit:4;stroke-dasharray:none;stroke-opacity:1"
       d="m 52.072319,77.796143 c -0.202042,1.716798 -0.745617,3.585388 0.0442,4.861359 l 3.933281,1.37002 1.458408,-0.30936 c 1.255224,0.861841 2.309695,1.83178 5.038136,1.90035 l 2.961009,-2.298097 -0.397752,-1.944544 c -1.130138,-0.902794 -2.278884,-1.78698 -4.331029,-1.767767 L 58.96661,77.707755 57.110455,77.000648 c 0.152028,0.101352 -2.274745,1.547633 -2.740039,1.414214 -0.254893,-0.07309 -2.298097,-0.618719 -2.298097,-0.618719 z"
       id="path6868"
       inkscape:connector-curvature="0"
       sodipodi:nodetypes="ccccccccccsc" />
    <path
       style="color:#000000;font-style:normal;font-variant:normal;font-weight:normal;font-stretch:normal;font-size:medium;line-height:normal;font-family:sans-serif;text-indent:0;text-align:start;text-decoration:none;text-decoration-line:none;text-decoration-style:solid;text-decoration-color:#000000;letter-spacing:normal;word-spacing:normal;text-transform:none;direction:ltr;block-progression:tb;writing-mode:lr-tb;baseline-shift:baseline;text-anchor:start;white-space:normal;clip-rule:nonzero;display:inline;overflow:visible;visibility:visible;opacity:1;isolation:auto;mix-blend-mode:normal;color-interpolation:sRGB;color-interpolation-filters:linearRGB;solid-color:#000000;solid-opacity:1;fill:#deaa87;fill-opacity:1;fill-rule:evenodd;stroke:none;stroke-width:1.77165353;stroke-linecap:butt;stroke-linejoin:miter;stroke-miterlimit:4;stroke-dasharray:none;stroke-dashoffset:0;stroke-opacity:1;color-rendering:auto;image-rendering:auto;shape-rendering:auto;text-rendering:auto;enable-background:accumulate"
       d="M 51.316406,62.71875 50.0625,63.291016 c 0.618795,2.509106 -0.104725,4.699315 -0.75,6.884765 0.284479,0.379687 0.792576,0.463114 0.748047,1.638672 -0.04524,1.19419 -0.67059,1.222018 -1.033203,1.667969 0.611383,0.995656 -0.416867,4.057883 -0.455078,5.947266 l 1.195312,-0.728516 c -0.297628,-1.578418 0.622729,-3.173692 0.722656,-5.117188 0.35124,-0.498197 0.687184,-0.996348 0.763672,-1.564453 0.0724,-0.537715 -0.141551,-1.062665 -0.349609,-1.582031 0.324067,-1.97147 1.585347,-4.975763 0.412109,-7.71875 z m -8.707031,1.398438 c -0.188158,1.148862 -0.648998,2.796722 -0.292969,4.583984 0.247661,1.243253 1.035155,2.569439 1.980469,3.777344 -1.701168,2.662722 -0.109094,4.647831 0.664063,7.501953 l 1.208984,-0.181641 c -0.740714,-3.125373 -1.215003,-5.193751 -0.625,-7.578125 -1.676413,-2.090711 -2.234269,-5.235733 -1.84375,-7.847656 z m -0.945313,1.880859 -1.416015,0.06055 c 0.277472,2.774126 -0.0038,4.667833 -1.015625,6.628906 0.187269,0.643747 0.378331,1.08112 0.46875,1.617188 0.107898,0.639692 -0.104823,1.365113 -0.464844,1.984374 0.495194,0.718873 1.104615,1.813616 1.198299,2.814454 0.08491,0.907055 -0.4795,2.645082 -0.406288,3.734948 l 1.015127,-0.826248 c -0.03778,-0.562384 0.31935,-1.141222 0.479014,-2.23629 0.141035,-0.967305 -0.129537,-2.571751 -0.725605,-3.688035 0.5027,-1.148925 0.460885,-2.27678 0.140625,-3.257813 1.172204,-2.451969 0.798266,-4.775137 0.726562,-6.832034 z m -8.882812,1.484375 -1.771484,0.0078 c 0.0095,2.015565 1.113827,4.665391 2.197265,6.216797 0.02006,0.521292 0.08035,0.991619 0.160157,1.414063 0.182796,0.967624 0.708292,1.546192 1.070312,1.951172 -0.217712,1.561037 -0.242588,2.850684 -0.02593,3.296875 l 1.100145,2.265625 0.947265,0.264705 -0.973192,-2.794002 c -0.194177,-0.828466 -0.0018,-1.996426 0.375532,-3.394531 -0.530849,-0.51767 -1.183414,-1.19104 -1.238281,-1.853516 -0.05289,-0.638636 -0.09459,-1.053236 0.109375,-1.626953 -0.914321,-1.715368 -1.878258,-3.819485 -1.951172,-5.748047 z"
       transform="translate(7.2594269,-1.8913524)"
       id="path4320"
       inkscape:connector-curvature="0"
       sodipodi:nodetypes="cccsccccscccscccccccccscsccsccccccscsccccsccc" />
    <path
       style="fill:url(#pattern5777-0);fill-opacity:1;fill-rule:evenodd;stroke:#0000ff;stroke-width:0.29055116;stroke-linecap:butt;stroke-linejoin:miter;stroke-miterlimit:4;stroke-dasharray:none;stroke-opacity:1;opacity:0.302"
       d="m 38.040678,55.663823 c -0.870228,2.463729 -0.05948,4.20704 0.78125,5.9375 l -1.25,2.625 c -0.203757,0.899666 0.260524,1.252754 0.96875,1.40625 3.369444,0.05 6.777512,-0.247618 10.312499,-1.6875 l 0.59375,-2.78125 c 0.308672,0.772198 0.913928,1.371389 2.21875,1.5625 2.302598,0.109823 4.580844,-0.04821 6.718749,-1.75 0.646966,-0.380803 0.730394,-1.113816 0.71875,-1.90625 l -1.4375,-4.53125 0.4375,-3.812499 -10.406249,1.937499 z"
       id="path4204-6"
       inkscape:connector-curvature="0"
       sodipodi:nodetypes="ccccccccccccc" />
    <path
       style="color:#000000;font-style:normal;font-variant:normal;font-weight:normal;font-stretch:normal;font-size:medium;line-height:normal;font-family:sans-serif;text-indent:0;text-align:start;text-decoration:none;text-decoration-line:none;text-decoration-style:solid;text-decoration-color:#000000;letter-spacing:normal;word-spacing:normal;text-transform:none;direction:ltr;block-progression:tb;writing-mode:lr-tb;baseline-shift:baseline;text-anchor:start;white-space:normal;clip-rule:nonzero;display:inline;overflow:visible;visibility:visible;opacity:1;isolation:auto;mix-blend-mode:normal;color-interpolation:sRGB;color-interpolation-filters:linearRGB;solid-color:#000000;solid-opacity:1;fill:#09090d;fill-opacity:1;fill-rule:evenodd;stroke:none;stroke-width:1.77165353;stroke-linecap:butt;stroke-linejoin:miter;stroke-miterlimit:4;stroke-dasharray:none;stroke-dashoffset:0;stroke-opacity:1;color-rendering:auto;image-rendering:auto;shape-rendering:auto;text-rendering:auto;enable-background:accumulate"
       d="m 57.637522,51.499845 c -0.955631,2.484243 -0.248553,4.165825 0.588888,6.572136 0.245407,0.705155 0.613935,2.020809 -0.44608,2.437325 -1.596742,0.627413 -3.456287,1.549587 -5.331341,1.730736 -0.848742,0.082 -2.305649,-0.126073 -2.45322,-1.046042 -0.08765,-0.546415 -0.05182,-2.841182 0.468539,-2.964602 0.771094,-0.182891 1.300517,-0.02365 1.668115,-0.283991 0.450786,-0.31926 0.724429,-1.148609 1.225955,-1.514402 1.170547,-0.85375 0.03527,-1.03467 -0.667817,-0.55257 -0.706415,0.484381 -0.878603,1.269252 -1.095175,1.367067 -0.345151,0.155886 -0.689509,-0.166122 -1.427386,0.39552 -1.019556,0.776043 -0.981229,1.440951 -1.124787,2.776593 -0.134857,1.254687 -0.194032,2.025358 -0.945043,2.721255 -1.570704,1.455435 -3.466559,1.569629 -5.394439,1.843561 -1.155258,0.16415 -4.120886,0.106504 -4.345161,-0.445742 -0.325783,-0.802196 1.001074,-1.981002 1.263816,-3.319563 -0.709307,-0.893087 -1.263311,-2.113782 -1.102934,-3.290946 0.08473,-0.6219 0.636907,-2.017422 0.169758,-2.352916 l -1.091555,-0.432599 c -0.405861,1.586966 -0.93083,3.346649 -0.155179,4.91778 0.410907,0.832319 0.859263,1.746778 0.370934,2.71125 -0.442363,0.873688 -1.232866,1.344785 -0.782447,2.352124 0.507239,1.134413 2.083218,0.973274 3.155567,1.027719 2.94699,0.149625 5.804537,-0.781738 8.587,-1.645898 0.784809,-0.243741 1.140386,-1.299116 1.088387,-2.238424 1.576211,1.554618 4.898931,0.969691 6.566797,0.32814 1.023131,-0.393552 2.911607,-1.16718 3.247126,-2.464348 0.283637,-1.096585 -0.366829,-2.123966 -0.656643,-3.151332 -0.518913,-1.839502 -1.300676,-3.526691 -0.60345,-5.392886 -0.04047,-0.01976 -0.778225,-0.08494 -0.778225,-0.08494 z"
       id="path4310"
       inkscape:connector-curvature="0"
       sodipodi:nodetypes="csssssssssssssscsccssssscssscc" />
    <path
       style="color:#000000;font-style:normal;font-variant:normal;font-weight:normal;font-stretch:normal;font-size:medium;line-height:normal;font-family:sans-serif;text-indent:0;text-align:start;text-decoration:none;text-decoration-line:none;text-decoration-style:solid;text-decoration-color:#000000;letter-spacing:normal;word-spacing:normal;text-transform:none;direction:ltr;block-progression:tb;writing-mode:lr-tb;baseline-shift:baseline;text-anchor:start;white-space:normal;clip-rule:nonzero;display:inline;overflow:visible;visibility:visible;opacity:1;isolation:auto;mix-blend-mode:normal;color-interpolation:sRGB;color-interpolation-filters:linearRGB;solid-color:#000000;solid-opacity:1;fill:#818899;fill-opacity:1;fill-rule:evenodd;stroke:none;stroke-width:1.77165353;stroke-linecap:butt;stroke-linejoin:miter;stroke-miterlimit:4;stroke-dasharray:none;stroke-dashoffset:0;stroke-opacity:1;color-rendering:auto;image-rendering:auto;shape-rendering:auto;text-rendering:auto;enable-background:accumulate"
       d="m 31.917969,25.931641 c 0.140739,0.203482 0.782876,0.798122 1.16256,0.935389 0.726,-0.222864 0.791326,-0.137448 1.083641,0.03812 0.951834,0.571667 0.889737,1.143337 0.718682,2.689459 -0.193581,1.749731 -1.997918,3.831701 -3.724649,3.331177 -0.792624,-0.229756 -0.659398,-1.437341 -0.553344,-2.139839 -0.138247,-0.154845 -0.735466,-0.34849 -1.008254,-0.445774 -0.381635,1.103052 -0.540879,2.510374 0.02312,3.153115 0.856338,1.054051 2.115705,2.057679 3.278144,3.040097 1.246023,1.053058 3.256494,1.038368 4.10213,2.443182 1.164135,1.93392 0.958923,4.413613 0.995485,6.728505 -0.264007,2.349085 -0.834849,4.657369 -1.079105,7.013813 -0.129631,1.061584 -0.196548,1.17129 -0.220634,2.027828 0.86412,2.10185 3.577431,0.743528 5.206905,0.410033 2.729933,-0.886703 5.51507,-1.556278 8.338239,-2.069817 2.712364,-0.624519 5.4762,-1.066088 8.223954,-1.436533 1.789228,-0.923191 -0.01092,-2.806927 0.254459,-4.039356 0.117812,-2.118987 -1.31379,-3.883075 -1.509873,-5.912556 -0.171449,-1.846301 1.559456,0.800668 2.634867,1.150774 1.804994,0.587626 3.496808,-0.08281 4.7573,-1.2099 1.447619,-1.381835 3.647851,-3.347163 2.767175,-5.554201 -1.201898,-1.28537 -3.212266,-1.43324 -4.581335,-2.557355 -1.693255,-1.57848 -2.595499,-4.255134 -5.077822,-4.829673 -1.760627,-0.407501 -3.538518,0.970423 -5.26721,0.110311 -3.462137,-1.121054 -7.498844,-1.435373 -11.098655,-1.560388 -1.196928,0.527103 -1.001898,1.124163 -1.709886,1.885887 -1.469595,-1.023856 -3.646447,-2.969861 -5.031673,-3.610107 -0.581968,-0.268983 -1.831148,-0.247385 -2.684221,0.407809 z m 4.255859,2.179687 c 1.351095,0.774149 2.445125,1.448984 3.478516,2.59961 0.403045,-0.642314 0.224733,-0.383006 0.83789,-1.171876 -0.52847,2.950474 2.636741,5.486382 4.915459,5.583198 1.809734,0.07689 4.257614,-2.124268 4.639292,-3.387908 0.348456,-1.153651 -0.01458,-1.125021 -0.955136,-2.413061 0.798762,0.549254 3.174701,1.202393 4.138224,1.228119 1.922998,0.05134 3.002919,-1.180477 4.549905,-0.416943 2.295022,1.132736 2.815225,4.741086 5.327571,5.710167 1.431958,0.609199 3.755895,1.164187 1.898254,2.831382 -1.122791,1.214908 -2.656768,3.280204 -4.526339,2.506618 -1.821825,-0.880208 -2.925646,-2.680062 -4.332933,-4.071259 -0.657884,2.348232 -1.292331,4.985101 -0.03773,7.250105 0.901507,1.655388 0.563365,3.585219 1.175626,5.275694 0.175264,1.008809 -2.37859,0.426235 -3.212257,0.903572 -3.979721,0.813657 -8.022707,1.405421 -11.889208,2.684477 -1.018208,0.09438 -3.443119,1.509569 -3.593026,0.352104 0.262258,-2.156893 0.605503,-4.299267 1.088671,-6.417923 0.301678,-2.163923 -0.372447,-4.292764 -0.614846,-6.433463 -0.186652,-0.876909 -0.398006,-1.608901 -0.70825,-2.438785 -1.1457,-1.663276 -4.596745,-2.164582 -6.241371,-4.28261 1.507272,-0.142703 2.77832,-1.032237 3.248734,-1.97258 0.626701,-1.252756 1.021794,-2.491555 0.812954,-3.918638 z"
       id="path4254"
       inkscape:connector-curvature="0"
       sodipodi:nodetypes="ccssscccssccccccccscccscccsccccsscsscccccccccccccsc" />
    <path
       style="fill:#ffe6d5;fill-rule:evenodd;stroke:none;stroke-width:0.29055119;stroke-linecap:butt;stroke-linejoin:miter;stroke-miterlimit:4;stroke-dasharray:none;stroke-opacity:1"
       d="m 39.9375,23.137597 c 0.900374,0.716168 1.384498,1.987337 2.0625,3 l -0.25,4.75 1.5,1.9375 1.9375,1.0625 c 1.056348,0.0502 1.766581,-0.591837 2.5,-1.1875 0.821722,-0.33413 0.979335,-1.110999 1.0625,-1.9375 l -1.375,-0.875 0.5,-2.125 2.25,1.0625 1.6875,0.5 c 1.082761,-0.02312 2.020515,-0.626272 2.6875,-2.3125 1.055265,0.04233 1.805067,-1.646287 2.625,-2.9375 l 1.5625,-4.625 -0.6875,-1.375 c 0.07815,-1.017103 0.119564,-2.049949 -0.375,-3.3125 l 0,-1.0625 c -0.574777,-1.011161 -1.069161,-1.539968 -1.5625,-2.0625 0.534034,-1.003412 0.815812,-1.8692302 0.4375,-2.3749993 l -2.875,-2.0625 c -1.174852,1.4501481 -3.203966,2.0460344 -5.1875,2.6875 -2.729167,0.6823903 -5.458333,1.4827423 -8.1875,0.0625 -0.473734,1.1512653 -1.515571,1.7344283 -1.25,3.6249993 0.147175,1.301176 1.524598,4.708922 2.5,5.4375 -0.127383,0.308162 -0.02162,0.749549 -0.6875,0.75 l -0.625,0.125 -1.5,-2.25 c -0.650338,-0.392451 -1.329025,-0.501413 -2.0625,-0.0625 -0.261287,0.51432 -0.615129,0.889807 -0.5625,1.875 l 1.375,2.25 0.625,1.6875 1.03125,0.28125 z"
       id="path4568"
       inkscape:connector-curvature="0"
       sodipodi:nodetypes="ccccccccccccccccccccccccccccccccc" />
    <path
       style="color:#000000;font-style:normal;font-variant:normal;font-weight:normal;font-stretch:normal;font-size:medium;line-height:normal;font-family:sans-serif;text-indent:0;text-align:start;text-decoration:none;text-decoration-line:none;text-decoration-style:solid;text-decoration-color:#000000;letter-spacing:normal;word-spacing:normal;text-transform:none;direction:ltr;block-progression:tb;writing-mode:lr-tb;baseline-shift:baseline;text-anchor:start;white-space:normal;clip-rule:nonzero;display:inline;overflow:visible;visibility:visible;opacity:1;isolation:auto;mix-blend-mode:normal;color-interpolation:sRGB;color-interpolation-filters:linearRGB;solid-color:#000000;solid-opacity:1;fill:#deaa87;fill-opacity:1;fill-rule:evenodd;stroke:none;stroke-width:1.77165353;stroke-linecap:butt;stroke-linejoin:miter;stroke-miterlimit:4;stroke-dasharray:none;stroke-dashoffset:0;stroke-opacity:1;color-rendering:auto;image-rendering:auto;shape-rendering:auto;text-rendering:auto;enable-background:accumulate"
       d="m 23.107492,19.937285 c 2.857441,2.18291 2.885159,1.430075 5.734257,3.636031 1.849391,1.431919 1.614835,2.890687 3.666776,4.073585 0.592673,0.341662 1.64822,0.952883 2.310539,1.68945 0.108482,-0.377071 0.33973,-1.765813 -0.308266,-1.984788 -2.431641,-0.513839 -2.146347,-1.579731 -3.271711,-3.087721 -1.849813,-2.478753 -4.903058,-3.793565 -7.494946,-5.291186 1.734634,-0.467427 3.048022,-2.483535 2.27759,-4.178428 -0.465963,-1.025085 -0.895076,-1.946655 -1.927035,-2.600571 -0.90451,-0.573156 -1.479832,-0.01379 -2.475178,-0.143347 -0.619961,-0.713425 -1.192005,-2.016336 -2.509661,-2.1765308 -1.317655,-0.1601949 -2.143789,0.7039248 -2.653491,1.0780268 -1.332668,-0.473358 -2.581024,0.985305 -2.364569,2.266944 -1.399028,0.42098 -1.159942,2.077988 -1.079561,3.00302 -1.291209,1.142421 -0.68274,3.208813 0.457265,4.227946 0.575844,0.702265 2.332669,0.601163 3.177979,0.6632 0.820528,1.30551 2.319418,1.27938 3.063967,1.392529 0.984461,0.99013 1.277994,1.910612 2.100675,2.913537 1.109006,1.35198 2.094389,2.496856 3.548724,3.467881 1.523773,1.017385 4.003567,1.673638 5.157656,2.241318 0.489022,1.07075 0.01736,1.810564 0.845572,1.842946 0.571848,0.107215 0.539736,-0.08594 0.738179,-0.327784 -0.705832,-1.03035 -0.450114,-2.216712 -1.938116,-3.066248 -1.648545,-0.941193 -3.868197,-1.130754 -5.226379,-2.534235 -1.516356,-1.566931 -1.962769,-2.239503 -3.281892,-3.974809 -0.29917,-0.393558 -0.739857,-1.520666 -1.961889,-2.115345 -0.496725,-0.183414 -1.788492,0.07318 -2.349369,-0.443606 0.58743,-0.204111 0.841035,-0.501301 0.694555,-2.078971 0.82552,0.07485 1.236907,-0.966078 1.057808,-1.502048 0.604007,0.254082 1.037976,-0.128417 1.190678,-0.973347 1.1564,1.136762 3.429773,0.07627 2.932829,-0.529756 l -1.494025,0.154256 c -0.649502,-0.07387 -1.003791,4.97e-4 -1.512331,-0.7153 -0.602259,-0.927811 1.047164,-1.340925 1.965072,-1.505095 1.326375,-0.503336 2.207004,0.703185 2.491135,1.190418 0.527742,0.904983 0.181945,2.85468 -1.239273,3.274686 l -2.228036,0.658442 z m -4.355535,-8.263457 c 0.781139,0.384362 0.913142,0.684252 1.328509,1.09254 -0.739901,0.366565 -0.801354,0.669062 -1.178762,1.072572 -0.467397,-0.571145 -1.13356,-0.94124 -1.180503,-1.692591 0.01101,-0.321542 0.300214,-0.92666 1.030756,-0.472521 z m -2.595206,0.931641 c 0.904301,0.06514 1.225003,0.791155 1.686248,1.443407 0.376448,0.532339 0.953739,0.787538 0.993212,1.494008 0.0415,0.742676 -0.869875,0.327878 -1.283556,-0.156551 -0.681143,-0.638616 -1.267162,-1.178211 -1.846941,-1.898661 -0.207881,-0.258318 0.05692,-0.910594 0.451037,-0.882203 z m -0.05646,2.559289 1.804013,1.620398 c 0.956391,0.859048 -0.748291,0.821964 -1.271884,0.34828 -0.709928,-0.642258 -2.153102,-1.062602 -1.808475,-1.812728 0.344627,-0.750125 0.950159,-0.448937 1.276346,-0.15595 z m 0.09356,2.874531 c 0.672098,0.36041 1.031491,1.054366 0.275867,1.367689 -0.483362,0.200429 -0.819165,0.09498 -1.672769,-0.117524 -0.859572,-0.213993 -1.160848,-1.637758 -0.475967,-2.148991 0.684881,-0.511234 1.243957,0.561574 1.872869,0.898826 z"
       id="path4264"
       inkscape:connector-curvature="0"
       sodipodi:nodetypes="sssccscssccccccccsscccssscccccccccsscscccccssscssssssssssss" />
    <path
       style="fill:#fed000;fill-rule:evenodd;stroke:#ff000a;stroke-width:0.29055119;stroke-linecap:butt;stroke-linejoin:miter;stroke-miterlimit:4;stroke-dasharray:none;stroke-opacity:1;fill-opacity:1"
       d="M 67.947266 31.113281 C 66.266744 31.19779 64.349132 31.759541 63.363281 32.353516 C 60.266591 34.219271 58.481743 37.282476 58.810547 40.882812 C 59.209674 45.253168 62.699684 47.149645 65.925781 47.556641 C 68.627286 47.897455 71.344567 45.716349 73.085938 43.623047 C 74.316353 42.143965 74.963547 38.968956 74.587891 37.082031 C 74.002609 34.142149 72.44333 31.802348 69.505859 31.205078 C 69.042067 31.110776 68.507439 31.085112 67.947266 31.113281 z M 65.484375 33.830078 C 66.053471 33.901414 66.520877 34.476845 66.998047 35.007812 C 66.926318 36.131254 66.304346 36.593744 65.761719 36.775391 C 64.780702 36.862165 64.416786 36.506642 63.904297 35.890625 C 63.744503 35.339221 63.865802 34.732859 64.876953 33.947266 C 65.093113 33.838737 65.294676 33.8063 65.484375 33.830078 z "
       transform="translate(7.2594269,-1.8913524)"
       id="path4587" />
    <path
       style="color:#000000;font-style:normal;font-variant:normal;font-weight:normal;font-stretch:normal;font-size:medium;line-height:normal;font-family:sans-serif;text-indent:0;text-align:start;text-decoration:none;text-decoration-line:none;text-decoration-style:solid;text-decoration-color:#000000;letter-spacing:normal;word-spacing:normal;text-transform:none;direction:ltr;block-progression:tb;writing-mode:lr-tb;baseline-shift:baseline;text-anchor:start;white-space:normal;clip-rule:nonzero;display:inline;overflow:visible;visibility:visible;opacity:1;isolation:auto;mix-blend-mode:normal;color-interpolation:sRGB;color-interpolation-filters:linearRGB;solid-color:#000000;solid-opacity:1;fill:#6f5c00;fill-opacity:1;fill-rule:nonzero;stroke:none;stroke-width:1.29042423;stroke-linecap:round;stroke-linejoin:bevel;stroke-miterlimit:4;stroke-dasharray:none;stroke-dashoffset:9.38976383;stroke-opacity:1;marker:none;color-rendering:auto;image-rendering:auto;shape-rendering:auto;text-rendering:auto;enable-background:accumulate"
       d="m 75.115234,28.40625 c -0.569673,-0.02916 -1.153005,0.0047 -1.740234,0.107422 -4.697829,0.822014 -8.212891,4.955584 -8.212891,9.683594 0,4.72801 4.515062,8.710685 9.212891,7.888672 4.69783,-0.822013 8.089844,-5.332537 8.089844,-10.060547 0,-4.137009 -3.361894,-7.414987 -7.34961,-7.619141 z m 0.726563,1.724609 c 3.311556,0.09849 5.789062,2.597229 5.789062,6.117188 0,4.02281 -3.237387,7.843734 -7.255859,8.546875 -4.018471,0.703142 -7.255859,-1.985003 -7.255859,-6.007813 0,-4.02281 3.237388,-7.843733 7.255859,-8.546875 0.502309,-0.08789 0.993717,-0.123445 1.466797,-0.109375 z m -2.855469,1.367188 c -0.06472,-0.0058 -0.130204,-0.0076 -0.195842,-0.0051 -0.06564,0.0025 -0.131424,0.0093 -0.196736,0.0207 -1.045023,0.182647 -1.933594,1.169139 -1.933594,2.21875 0,1.049611 1.388606,1.846911 2.433594,1.664062 1.044987,-0.182849 1.621094,-0.979685 1.621094,-2.029296 0,-0.91841 -0.822497,-1.788506 -1.728516,-1.869146 z m -0.392578,0.773437 c 0.508313,-0.08894 0.876953,0.534096 0.876953,0.96875 0,0.434654 -0.36864,0.871995 -0.876953,0.960938 -0.508314,0.08894 -1.066406,-0.188393 -1.066406,-0.623047 0,-0.434654 0.558092,-1.217698 1.066406,-1.306641 z"
       id="path4298"
       inkscape:connector-curvature="0"
       sodipodi:nodetypes="ssssssssssssssssssssssss" />
    <g
       transform="matrix(0.6965039,-0.47615127,0.22603107,0.70501202,1.1222174,49.929186)"
       style="font-style:normal;font-variant:normal;font-weight:normal;font-stretch:normal;font-size:16.3623333px;line-height:125%;font-family:schooltype;-inkscape-font-specification:schooltype;text-align:end;letter-spacing:0px;word-spacing:0px;text-anchor:end;fill:#2b2200;fill-opacity:1;stroke:none;stroke-width:1px;stroke-linecap:butt;stroke-linejoin:miter;stroke-opacity:1"
       id="text4410">
      <path
         d="m 93.254685,40.793866 0,1.112639 0,10.340994 -2.108975,0 0,-8.564713 -2.101939,2.452942 -2.708587,0.123157 4.826888,-5.465019 z"
         id="path4415"
         inkscape:connector-curvature="0"
         sodipodi:nodetypes="ccccccccc"
         style="fill:#2b2200" />
    </g>
    <path
       style="fill:#ffe6d5;fill-rule:evenodd;stroke:#0000ff;stroke-width:0.29055119;stroke-linecap:butt;stroke-linejoin:miter;stroke-miterlimit:4;stroke-dasharray:none;stroke-opacity:1"
       d="M 75.717952,47.172968 75.099234,45.250521 C 74.964013,43.815046 74.946753,43.136853 74.524709,41.471919 74.303738,41.11511 74.104864,40.915584 73.883893,41.029978 l -1.811961,0.353553 c -0.293903,0.181808 -0.368528,0.400163 -0.309359,0.640816 l 0.905981,3.447145 c -0.362653,-0.256065 -0.838877,-0.486948 -1.458407,-0.353553 -0.375322,0.08327 -0.591915,0.320767 -0.265166,1.281631 0.439765,0.651831 0.927901,1.659223 1.16951,2.406068"
       id="path4570-4"
       inkscape:connector-curvature="0"
       sodipodi:nodetypes="cccccccccc" />
    <path
       style="color:#000000;font-style:normal;font-variant:normal;font-weight:normal;font-stretch:normal;font-size:medium;line-height:normal;font-family:sans-serif;text-indent:0;text-align:start;text-decoration:none;text-decoration-line:none;text-decoration-style:solid;text-decoration-color:#000000;letter-spacing:normal;word-spacing:normal;text-transform:none;direction:ltr;block-progression:tb;writing-mode:lr-tb;baseline-shift:baseline;text-anchor:start;white-space:normal;clip-rule:nonzero;display:inline;overflow:visible;visibility:visible;opacity:1;isolation:auto;mix-blend-mode:normal;color-interpolation:sRGB;color-interpolation-filters:linearRGB;solid-color:#000000;solid-opacity:1;fill:#deaa87;fill-opacity:1;fill-rule:evenodd;stroke:none;stroke-width:1.77165353;stroke-linecap:butt;stroke-linejoin:miter;stroke-miterlimit:4;stroke-dasharray:none;stroke-dashoffset:0;stroke-opacity:1;color-rendering:auto;image-rendering:auto;shape-rendering:auto;text-rendering:auto;enable-background:accumulate"
       d="m 73.272944,40.598199 c -0.178754,-0.0063 -0.586828,0.04568 -0.733324,0.08608 -1.008761,0.27817 -1.167639,1.241252 -0.973336,2.034879 0.240626,0.982826 0.649993,1.386399 0.729861,2.215117 -0.33324,-0.241641 -0.690044,-0.31952 -1.265362,-0.103952 -0.833325,0.31224 -0.634524,0.765278 -0.510804,1.2098 -0.400475,-0.419518 -0.949675,-0.424357 -1.313755,-0.23479 -0.564272,0.2938 -0.752548,1.100814 -0.706165,1.56826 0.160562,0.401292 0.180474,0.616971 0.460621,0.897941 l 0.486939,-0.276626 c -0.07049,-0.510144 -0.425574,-0.906168 0.151118,-1.212773 0.608355,-0.323438 1.091128,0.166086 1.33347,0.526936 0.337592,0.502681 0.227106,0.702537 0.552712,1.194992 0.747928,1.131181 1.225332,0.477341 0.770688,-0.258091 -0.30174,-0.488092 -0.203561,-0.677411 -0.586766,-1.424406 -0.448682,-0.874636 -0.5531,-1.224883 -0.08424,-1.320924 0.474374,-0.09717 0.865514,0.209281 1.125562,0.63985 0.37078,0.613911 0.439582,0.66274 0.651289,1.3563 0.400467,1.311941 0.929502,0.962631 0.63985,-0.105746 -0.312182,-1.151479 -0.733958,-1.32896 -1.064625,-2.505633 -0.06992,-0.248814 -0.285971,-0.929388 -0.40638,-1.30253 0.456721,0.149189 0.586465,0.202668 1.016992,0.09146 0.302419,-0.07812 0.474511,-0.109707 0.713416,-0.322687 0.05863,0.454476 0.346647,1.192025 0.364364,1.381381 0.11098,1.186119 0.313004,1.1609 0.72232,2.28518 0.270512,0.743032 0.771675,0.354789 0.597448,-0.167888 C 75.398688,45.2107 75.402997,45.367722 75.1452,44.053274 74.931955,42.965992 75.11524,42.423846 74.723988,41.381227 74.388337,40.486764 73.809206,40.617198 73.272944,40.598199 Z m -0.278341,1.163878 c 0.541439,-0.09415 0.844415,-0.346983 0.930123,-0.255648 0.349043,0.390629 0.250447,0.68615 0.244107,1.06038 -0.04451,0.36285 -0.420749,0.559208 -0.774642,0.650613 -0.378592,0.09779 -0.651272,0.18722 -1.043849,-0.286817 -0.100683,-0.379134 -0.266145,-0.592582 -0.272749,-0.855814 -0.06794,-0.474588 0.337283,-0.211903 0.91701,-0.312714 z"
       id="path4294"
       inkscape:connector-curvature="0"
       sodipodi:nodetypes="ssscscscccsssssssssscscsscssssccsccs" />
    <path
       style="color:#000000;font-style:normal;font-variant:normal;font-weight:normal;font-stretch:normal;font-size:medium;line-height:normal;font-family:sans-serif;text-indent:0;text-align:start;text-decoration:none;text-decoration-line:none;text-decoration-style:solid;text-decoration-color:#000000;letter-spacing:normal;word-spacing:normal;text-transform:none;direction:ltr;block-progression:tb;writing-mode:lr-tb;baseline-shift:baseline;text-anchor:start;white-space:normal;clip-rule:nonzero;display:inline;overflow:visible;visibility:visible;opacity:1;isolation:auto;mix-blend-mode:normal;color-interpolation:sRGB;color-interpolation-filters:linearRGB;solid-color:#000000;solid-opacity:1;fill:#d40000;fill-opacity:1;fill-rule:evenodd;stroke:none;stroke-width:1.77165353;stroke-linecap:butt;stroke-linejoin:miter;stroke-miterlimit:4;stroke-dasharray:none;stroke-dashoffset:0;stroke-opacity:1;color-rendering:auto;image-rendering:auto;shape-rendering:auto;text-rendering:auto;enable-background:accumulate"
       d="m 41.584482,26.666973 c 0,0 -1.38969,0.600672 -1.552735,2.322266 -0.09289,0.98079 0.04191,2.135455 0.43945,3.169922 1.115663,2.903147 3.772393,4.879487 6.666016,5.888671 7.566156,2.638784 15.958956,0.984941 23.212891,-1.998047 1.466734,-0.603155 2.341252,-1.044102 3.376953,-2.1875 0.0076,-1.175964 -0.947179,-1.496787 -1.416016,-1.298828 -0.261785,0.13561 -0.19231,0.266325 -0.451038,0.48508 -0.493446,0.41721 -1.356507,0.989821 -2.203259,1.370389 -6.870082,3.087723 -15.39016,4.348291 -22.341797,1.923828 -2.380632,-0.830273 -4.926382,-2.603148 -5.814453,-4.914062 -0.122055,-0.31761 -0.645583,-1.25738 -0.50195,-2.113281 0.143631,-0.855902 0.441407,-1.275391 0.441406,-1.275391 0.04818,-0.429898 0.09635,-0.718545 0.144532,-1.373047 z"
       id="path4306"
       inkscape:connector-curvature="0"
       sodipodi:nodetypes="cssssccssssscc" />
    <path
       style="color:#000000;font-style:normal;font-variant:normal;font-weight:normal;font-stretch:normal;font-size:medium;line-height:normal;font-family:sans-serif;text-indent:0;text-align:start;text-decoration:none;text-decoration-line:none;text-decoration-style:solid;text-decoration-color:#000000;letter-spacing:normal;word-spacing:normal;text-transform:none;direction:ltr;block-progression:tb;writing-mode:lr-tb;baseline-shift:baseline;text-anchor:start;white-space:normal;clip-rule:nonzero;display:inline;overflow:visible;visibility:visible;opacity:1;isolation:auto;mix-blend-mode:normal;color-interpolation:sRGB;color-interpolation-filters:linearRGB;solid-color:#000000;solid-opacity:1;fill:#aa0000;fill-opacity:1;fill-rule:evenodd;stroke:none;stroke-width:1.77165353;stroke-linecap:butt;stroke-linejoin:miter;stroke-miterlimit:4;stroke-dasharray:none;stroke-dashoffset:0;stroke-opacity:1;color-rendering:auto;image-rendering:auto;shape-rendering:auto;text-rendering:auto;enable-background:accumulate"
       d="m 48.072266,28.464844 c -0.01284,0.324963 -0.06383,0.662094 -0.242188,0.904297 -0.833951,-0.33358 2.056656,1.00446 3.314453,1.841797 1.257219,0.836952 2.511616,2.25522 3.94336,2.509765 2.854046,0.507411 6.847706,-0.526581 10.214843,-1.171875 0.682388,-0.130776 1.898438,-0.316406 1.898438,-0.316406 0.457194,-0.474446 0.618036,-0.778588 0.998047,-1.052734 0,0 -0.9636,-0.08268 -3.222657,0.126953 -3.33313,0.3093 -7.346892,1.395772 -9.671874,0.982421 C 54.4625,32.139333 53.054582,31.02176 51.875,30.236328 50.695418,29.450897 48.072266,28.464844 48.072266,28.464844 Z"
       id="path4308"
       inkscape:connector-curvature="0"
       sodipodi:nodetypes="ccsssccsssc" />
    <path
       style="fill:#e6e6e6;fill-rule:evenodd;stroke:#ffcc00;stroke-width:0.1062992;stroke-linecap:butt;stroke-linejoin:miter;stroke-miterlimit:4;stroke-dasharray:none;stroke-opacity:1"
       d="m 41.554106,78.459056 c 0.471278,1.260507 0.920246,2.548281 2.12132,2.916815 1.699644,1.161308 2.495962,0.462827 3.535534,0.265165 1.577503,-1.035469 1.360455,-2.504105 1.856156,-3.800699 l 0.972271,2.209709 -0.176776,5.038136 c -1.011807,2.375919 -2.184037,2.70644 -3.358758,3.005204 -2.011364,0.281 -3.561652,-0.892163 -5.038135,-2.298097 l -0.737897,-5.412676 z"
       id="path6866"
       inkscape:connector-curvature="0"
       sodipodi:nodetypes="cccccccccc" />
    <path
       style="color:#000000;font-style:normal;font-variant:normal;font-weight:normal;font-stretch:normal;font-size:medium;line-height:normal;font-family:sans-serif;text-indent:0;text-align:start;text-decoration:none;text-decoration-line:none;text-decoration-style:solid;text-decoration-color:#000000;letter-spacing:normal;word-spacing:normal;text-transform:none;direction:ltr;block-progression:tb;writing-mode:lr-tb;baseline-shift:baseline;text-anchor:start;white-space:normal;clip-rule:nonzero;display:inline;overflow:visible;visibility:visible;opacity:1;isolation:auto;mix-blend-mode:normal;color-interpolation:sRGB;color-interpolation-filters:linearRGB;solid-color:#000000;solid-opacity:1;fill:#333333;fill-opacity:1;fill-rule:evenodd;stroke:none;stroke-width:1.0629921;stroke-linecap:butt;stroke-linejoin:miter;stroke-miterlimit:4;stroke-dasharray:none;stroke-dashoffset:0;stroke-opacity:1;color-rendering:auto;image-rendering:auto;shape-rendering:auto;text-rendering:auto;enable-background:accumulate"
       d="m 48.625,76.785156 c -0.104144,1.039871 -0.181567,2.092146 -0.473546,3.099418 -0.404409,0.88423 -1.324244,1.474341 -2.260054,1.652348 -1.161224,0.09749 -2.226121,-0.611876 -2.977338,-1.43536 -0.577169,-0.609264 -0.862901,-1.468331 -1.029296,-2.429687 -0.482785,0.247322 -0.786124,0.794407 -1.002025,1.330049 -0.515366,1.157549 -0.443931,2.169825 -0.336321,3.381167 0.140891,1.092772 0.30874,2.182603 0.460306,3.273429 0.306471,1.071592 1.498774,2.111087 2.393978,2.639733 1.240626,0.677418 2.724602,0.919217 4.080627,0.324422 1.615387,-0.664894 2.826617,-2.524094 2.891756,-4.305661 0.164955,-1.773736 0.309368,-3.366697 -0.214637,-5.098696 -0.301067,-0.440829 -0.586525,-1.069139 -0.970597,-1.770637 z m -7.05396,2.428042 c 0.119753,0.690426 0.334169,1.345511 0.769245,1.730124 0.278727,0.42584 0.915631,0.586914 0.995137,1.111082 0.167297,0.692206 0.290919,1.394824 0.375516,2.101846 -0.356052,0.186295 -0.462289,0.451226 -0.553421,0.610468 0.04558,0.200087 0.04145,0.44988 0.426583,0.310411 0.635491,-0.296292 1.303691,-0.393202 2.068418,-0.394944 0.714009,-0.0016 1.526337,0.06837 2.0881,0.445841 0.337006,0.02808 0.421914,-0.132905 0.287569,-0.458334 -0.282285,-0.340577 -0.572588,-0.56237 -0.764998,-0.720648 0.08077,-0.530022 0.14958,-1.584623 0.427671,-2.023639 0.800131,-0.491551 1.395823,-1.667804 1.442068,-3.138179 0.725427,1.786414 0.487048,4.268443 0.286198,5.948343 -0.311731,1.452322 -1.978675,2.40393 -3.450694,2.557051 -1.346511,-0.01087 -2.195486,-0.471539 -3.229365,-1.285191 -0.450164,-0.312176 -1.062173,-0.974543 -1.105866,-1.475255 -0.202711,-1.539297 -0.614054,-2.653951 -0.610766,-4.211002 0.192725,-0.480317 0.476622,-0.947887 0.548605,-1.107974 z m 2.841069,3.12274 c 0.672378,0.238124 1.417495,0.319162 2.109375,0.113281 -0.121514,0.435394 -0.01604,1.11252 -0.219408,1.402062 -0.536533,-0.08036 -1.084303,-0.05257 -1.616529,0.0452 -0.06646,-0.524132 -0.160485,-1.044517 -0.273438,-1.560543 z"
       id="path4363"
       inkscape:connector-curvature="0"
       sodipodi:nodetypes="ccccccccccccccccccccscccccccccccccccc" />
    <path
       style="color:#000000;font-style:normal;font-variant:normal;font-weight:normal;font-stretch:normal;font-size:medium;line-height:normal;font-family:sans-serif;text-indent:0;text-align:start;text-decoration:none;text-decoration-line:none;text-decoration-style:solid;text-decoration-color:#000000;letter-spacing:normal;word-spacing:normal;text-transform:none;direction:ltr;block-progression:tb;writing-mode:lr-tb;baseline-shift:baseline;text-anchor:start;white-space:normal;clip-rule:nonzero;display:inline;overflow:visible;visibility:visible;opacity:1;isolation:auto;mix-blend-mode:normal;color-interpolation:sRGB;color-interpolation-filters:linearRGB;solid-color:#000000;solid-opacity:1;fill:#333333;fill-opacity:1;fill-rule:evenodd;stroke:none;stroke-width:1.0629921;stroke-linecap:butt;stroke-linejoin:miter;stroke-miterlimit:4;stroke-dasharray:none;stroke-dashoffset:0;stroke-opacity:1;color-rendering:auto;image-rendering:auto;shape-rendering:auto;text-rendering:auto;enable-background:accumulate"
       d="m 56.994141,76.351562 c -0.466262,0.820298 -1.505985,1.458096 -2.664063,1.417969 -0.828308,-0.0287 -1.640264,-0.237519 -2.443359,-0.416015 -0.2301,0.129636 -0.484902,0.496041 -0.253907,0.863281 -0.269593,1.435128 -0.478765,2.748893 -0.02539,4.167969 0.149781,0.268402 0.142423,0.749933 0.482422,0.83789 1.511068,0.390093 3.022135,1.159294 4.533203,1.105469 l 0.785156,-0.171875 c 1.597084,1.290454 3.172397,1.736858 5.576172,1.826172 1.10838,-0.25501 2.86257,-1.529539 3.089844,-2.66211 0.172912,-0.763458 -0.139491,-1.473158 -0.65625,-2.140624 -0.81026,-1.048671 -2.062359,-1.688418 -3.365235,-1.865235 -0.407864,-0.117055 -0.659425,0.04008 -1.074218,-0.04883 -0.562547,-0.598208 -1.12631,-1.565963 -1.925782,-1.884766 -0.667056,-0.266 -1.469019,-0.603598 -2.058593,-1.029295 z m 0.267578,1.240235 c 0.707305,0.160038 1.171182,0.31643 1.808593,0.896484 l 1.580079,1.439453 c 1.201829,0.357274 2.376666,0.441048 3.49414,1.173828 0.467703,0.306694 1.045207,0.809564 0.845703,1.382813 -0.06925,0.589994 -1.629478,1.814915 -2.154297,2.164063 -1.227992,0.04656 -1.523904,-0.01334 -2.740234,-0.123047 -0.994012,-0.08965 -1.770305,-0.372385 -2.474609,-1.076172 l -0.958985,-0.01563 c -1.447449,-0.152178 -3.014283,-0.638605 -4.226562,-1.4375 -0.475445,-1.177211 -0.237865,-2.295311 -0.01367,-3.5 0.912163,0.271182 2.038055,0.63841 2.9375,0.21289 0.776554,1.206553 1.987493,2.079275 2.841797,2.447266 1.484552,0.639469 1.871752,0.667853 2.80664,1.001953 -0.127035,0.226186 -0.400786,0.510272 -0.474609,0.794922 -0.162565,0.626826 0.200003,0.83111 0.490235,0.0332 0.116239,-0.319569 0.364509,-0.695658 0.65039,-0.90625 0.281561,-0.207409 0.758653,-0.281219 1.085938,-0.341797 0.749286,-0.138686 0.650438,-0.487641 0.06836,-0.458984 -0.316692,0.01559 -0.592785,0.09403 -0.859375,0.177734 -2.256389,-0.875601 -3.711953,-2.356091 -4.804688,-3.783203 0.02636,-0.02696 0.07615,-0.05598 0.09765,-0.08202 z m -0.607422,0.480469 c 1.17907,1.290665 2.547778,2.493807 4.53125,3.505859 -1.02674,-0.243505 -1.838699,-0.476804 -2.669922,-0.923828 -0.899143,-0.48355 -1.876635,-1.05414 -2.464844,-2.257813 0.210831,-0.08982 0.413842,-0.205866 0.603516,-0.324218 z"
       id="path4385"
       inkscape:connector-curvature="0"
       sodipodi:nodetypes="cscccccccccccsccccsccscccccscssssscccccscc" />
    <text
       xml:space="preserve"
       style="font-style:normal;font-variant:normal;font-weight:normal;font-stretch:normal;font-size:10px;line-height:125%;font-family:schooltype;-inkscape-font-specification:schooltype;text-align:start;letter-spacing:0px;word-spacing:0px;text-anchor:start;fill:#000000;fill-opacity:1;stroke:none;stroke-width:1px;stroke-linecap:butt;stroke-linejoin:miter;stroke-opacity:1"
       x="8.485281"
       y="31.699444"
       id="text4406"
       sodipodi:linespacing="125%"><tspan
         sodipodi:role="line"
         id="tspan4408"
         x="8.485281"
         y="31.699444" /></text>
    <path
       style="color:#000000;font-style:normal;font-variant:normal;font-weight:normal;font-stretch:normal;font-size:medium;line-height:normal;font-family:sans-serif;text-indent:0;text-align:start;text-decoration:none;text-decoration-line:none;text-decoration-style:solid;text-decoration-color:#000000;letter-spacing:normal;word-spacing:normal;text-transform:none;direction:ltr;block-progression:tb;writing-mode:lr-tb;baseline-shift:baseline;text-anchor:start;white-space:normal;clip-rule:nonzero;display:inline;overflow:visible;visibility:visible;opacity:1;isolation:auto;mix-blend-mode:normal;color-interpolation:sRGB;color-interpolation-filters:linearRGB;solid-color:#000000;solid-opacity:1;fill:#782121;fill-opacity:1;fill-rule:evenodd;stroke:none;stroke-width:1.77165353;stroke-linecap:butt;stroke-linejoin:miter;stroke-miterlimit:4;stroke-dasharray:none;stroke-dashoffset:0;stroke-opacity:1;color-rendering:auto;image-rendering:auto;shape-rendering:auto;text-rendering:auto;enable-background:accumulate"
       d="m 67.509766,74.113281 c -1.428135,0.03554 -2.069146,0.575054 -1.382081,1.964886 L 69.082031,89.527344 37.523438,90.1875 40.816406,75.199219 c -1.311905,-0.564422 -2.120302,-0.342276 -2.079154,1.207007 l -1.553658,7.06643 c -5.844177,-0.281341 -11.906082,-0.07822 -17.900391,-0.05664 -2.835056,5.187994 -5.604456,10.481076 -8.480469,15.603515 l 0.1875,4.921879 c 1.411871,0.21822 2.137383,-0.1999 1.70773,-1.68903 0.08437,-1.00545 -0.339001,-2.491867 0.05861,-3.200589 l 22.68093,-0.364291 0.07227,5.23242 c 1.406138,0.2521 2.142721,-0.14742 1.748885,-1.64708 l -0.143417,-10.30409 32.371094,-0.679688 0.16211,12.630858 c 1.405802,0.2521 2.142869,-0.14742 1.750901,-1.6471 l -0.0634,-5.001336 22.818359,0.367188 -0.185547,6.244138 c 1.393967,0.31134 2.145436,-0.0584 1.817596,-1.5723 0.02427,-1.55292 0.13724,-3.241453 0.112092,-4.714807 L 86.802743,81.292969 69.2129,81.859375 Z M 85.78125,83.097656 92.892578,95.845703 71.3125,95.498047 c -0.06803,-2.25655 0.157111,-4.448495 -0.550935,-6.595003 L 69.599609,83.619141 Z M 36.820312,85.125 c -0.46044,2.343291 -1.154547,4.768378 -1.47405,7.061263 l 0.06585,4.729753 -21.601562,0.349609 6.53125,-12.082031 z"
       id="path4417"
       inkscape:connector-curvature="0"
       sodipodi:nodetypes="ccccccccccccccccccccccccccccccccccccccc" />
    <g
       transform="scale(1.0520619,0.9505144)"
       style="font-style:normal;font-variant:normal;font-weight:normal;font-stretch:normal;font-size:30.04785156px;line-height:125%;font-family:schooltype;-inkscape-font-specification:schooltype;text-align:end;letter-spacing:0px;word-spacing:0px;text-anchor:end;fill:#000000;fill-opacity:1;stroke:none;stroke-width:1px;stroke-linecap:butt;stroke-linejoin:miter;stroke-opacity:1"
       id="text4485">
      <path
         d="m 53.386479,98.191702 0,2.043258 0,9.16004 -2.824498,0 0,-8.49899 -6.189857,7.33167 -2.644211,0 8.864116,-10.035978 z"
         id="path4515"
         inkscape:connector-curvature="0"
         sodipodi:nodetypes="ccccccccc" />
    </g>
    <g
       transform="scale(1.0141339,0.98606307)"
       style="font-style:normal;font-variant:normal;font-weight:normal;font-stretch:normal;font-size:30.99010468px;line-height:125%;font-family:schooltype;-inkscape-font-specification:schooltype;text-align:end;letter-spacing:0px;word-spacing:0px;text-anchor:end;fill:#000000;fill-opacity:1;stroke:none;stroke-width:1px;stroke-linecap:butt;stroke-linejoin:miter;stroke-opacity:1"
       id="text4489">
      <path
         d="m 26.504402,105.39161 c -0.152435,-0.4138 -0.363859,-0.77844 -0.634272,-1.09392 -0.619802,-0.7231 -1.342904,-1.08465 -2.169307,-1.08465 -1.136304,0 -2.035017,0.54749 -2.69614,1.64247 -0.106669,0.17893 -0.204456,0.36789 -0.293359,0.56688 -0.907499,0.017 -1.607131,-0.046 -2.640224,-0.0372 0.290779,-0.62974 0.720914,-1.40825 1.167147,-1.95525 1.301585,-1.54951 2.75812,-2.32426 4.369605,-2.32426 l 0.09297,0 c 1.425545,0.0207 2.747789,0.57849 3.966733,1.67347 0.830531,0.72853 1.393882,1.61121 1.690053,2.64803 -1.287029,0.0565 -2.017523,0.0314 -2.853206,-0.0356 z"
         id="path4512"
         style="fill:#000000"
         inkscape:connector-curvature="0"
         sodipodi:nodetypes="cssccccscccc" />
    </g>
    <g
       transform="scale(1.0141339,0.98606308)"
       style="font-style:normal;font-variant:normal;font-weight:normal;font-stretch:normal;font-size:30.99010468px;line-height:125%;font-family:schooltype;-inkscape-font-specification:schooltype;text-align:end;letter-spacing:0px;word-spacing:0px;text-anchor:end;fill:#000000;fill-opacity:1;stroke:none;stroke-width:1px;stroke-linecap:butt;stroke-linejoin:miter;stroke-opacity:1"
       id="text4489-8">
      <path
         d="m 85.29595,105.28545 c 0,-1.09498 -0.40252,-2.26999 -1.084303,-2.82782 -0.702443,-0.53716 -1.580496,-0.80574 -2.634159,-0.80574 -0.950363,0 -1.673466,0.39254 -2.169307,1.17763 -0.495842,0.80574 -0.743763,1.62181 -0.743763,2.44821 l -2.510198,0.062 c 0,-0.45452 0.04132,-0.87805 0.12396,-1.27059 0.06198,-0.43386 0.216931,-0.90904 0.464852,-1.42554 0.268581,-0.59915 0.588812,-1.07433 0.960693,-1.42555 0.392541,-0.4132 0.950363,-0.76442 1.673466,-1.05366 0.743762,-0.289243 1.580495,-0.433864 2.510198,-0.433864 1.838747,0 3.253962,0.526834 4.245645,1.580494 1.012343,1.03301 1.580144,2.61089 1.580144,4.03643 -1.247291,-0.043 -2.001064,-0.0613 -2.417228,-0.062 z"
         id="path4518"
         inkscape:connector-curvature="0"
         sodipodi:nodetypes="ccscccccccsccc" />
    </g>
    <path
       style="fill:#ffffff;fill-rule:evenodd;stroke:#000000;stroke-width:0.29055116;stroke-linecap:butt;stroke-linejoin:miter;stroke-miterlimit:4;stroke-dasharray:none;stroke-opacity:1"
       d="m 44.55931,19.63661 c -0.761422,-0.41338 -1.400804,-0.46064 -2.607456,-2.209708 l -0.486136,-3.226175 1.149048,-1.37002 c 0.795495,0.03048 1.590991,-0.06963 2.386486,0.751301 l 1.016466,1.90035 c 0.06081,0.987003 0.507148,1.974006 0.04419,2.961009 z"
       id="path6501"
       inkscape:connector-curvature="0"
       sodipodi:nodetypes="cccccccc" />
    <path
       style="color:#000000;font-style:normal;font-variant:normal;font-weight:normal;font-stretch:normal;font-size:medium;line-height:normal;font-family:sans-serif;text-indent:0;text-align:start;text-decoration:none;text-decoration-line:none;text-decoration-style:solid;text-decoration-color:#000000;letter-spacing:normal;word-spacing:normal;text-transform:none;direction:ltr;block-progression:tb;writing-mode:lr-tb;baseline-shift:baseline;text-anchor:start;white-space:normal;clip-rule:nonzero;display:inline;overflow:visible;visibility:visible;opacity:1;isolation:auto;mix-blend-mode:normal;color-interpolation:sRGB;color-interpolation-filters:linearRGB;solid-color:#000000;solid-opacity:1;fill:#deaa87;fill-opacity:1;fill-rule:evenodd;stroke:none;stroke-width:1.0629921;stroke-linecap:butt;stroke-linejoin:miter;stroke-miterlimit:4;stroke-dasharray:none;stroke-dashoffset:0;stroke-opacity:1;color-rendering:auto;image-rendering:auto;shape-rendering:auto;text-rendering:auto;enable-background:accumulate"
       d="m 43.158203,12.421875 c -0.392642,0.0351 -0.797298,0.224938 -1.208984,0.488281 -0.773139,0.494553 -1.031595,1.338687 -1.001953,2.095703 0.02964,0.757016 0.279297,1.494119 0.486328,2.101563 0.268777,0.788613 0.755898,1.272466 1.352286,1.874662 0.338839,0.342139 0.835664,0.692172 1.229552,0.820844 -0.389964,0.503059 -0.515296,0.744589 -0.606698,1.303264 -0.09195,0.56201 0.157483,0.571644 0.458141,0.0712 0.348052,-0.579327 1.049822,-1.337788 1.656563,-1.828125 0.60674,-0.490338 1.121788,-0.620274 2.145784,-1.009597 0.760937,-0.289308 0.156989,-0.803112 -0.189283,-0.719305 -0.222554,0.05386 -0.676784,0.201261 -0.892916,0.282311 -0.01179,-0.241554 0.103829,-0.909653 0.06853,-1.209128 C 46.546022,15.764336 46.462326,14.83098 45.83008,13.943354 45.397414,13.335923 44.917132,12.801255 44.251955,12.525386 43.880631,12.371387 43.508867,12.390524 43.158203,12.42187 Z m 0.94565,1.153405 c 0.389493,0.171679 0.91163,0.707502 1.189091,1.313368 0.352405,0.769514 0.357882,1.29734 0.457056,2.138696 0.05474,0.464458 0.06916,0.837409 0.07227,1.109375 -0.341108,0.183258 -0.550851,0.236135 -0.847488,0.475863 -0.148543,0.120045 -0.402467,0.404321 -0.535325,0.541715 -0.194249,-0.172713 -0.806746,-0.556264 -1.076678,-0.828825 -0.554199,-0.559596 -0.992247,-1.149469 -1.132113,-1.559847 -0.203221,-0.596265 -0.259476,-1.113394 -0.280551,-1.651644 -0.02108,-0.538251 0.307061,-1.146039 0.720509,-1.45843 0.495032,-0.374034 1.014052,-0.265034 1.433229,-0.08027 z"
       id="path4169"
       inkscape:connector-curvature="0"
       sodipodi:nodetypes="ssssscssssscssssssscscsssss" />
    <path
       style="fill:#ffffff;fill-rule:evenodd;stroke:#ffffff;stroke-width:0.29055116;stroke-linecap:butt;stroke-linejoin:miter;stroke-miterlimit:4;stroke-dasharray:none;stroke-opacity:1"
       d="m 50.481329,13.979756 0.08839,-2.65165 c 0.116903,-0.559983 0.761769,-1.014373 1.458408,-1.4584084 0.647335,0.010502 1.273059,-0.087053 2.032932,0.4861364 0.68508,0.791062 1.008309,1.654494 1.104855,2.563262 0.01199,1.442308 -0.410616,2.667314 -1.104855,3.756505 l -1.325825,0 c -0.431107,-1.669639 -1.36826,-2.16255 -2.253905,-2.695845 z"
       id="path6503"
       inkscape:connector-curvature="0"
       sodipodi:nodetypes="cccccccc" />
    <path
       style="color:#000000;font-style:normal;font-variant:normal;font-weight:normal;font-stretch:normal;font-size:medium;line-height:normal;font-family:sans-serif;text-indent:0;text-align:start;text-decoration:none;text-decoration-line:none;text-decoration-style:solid;text-decoration-color:#000000;letter-spacing:normal;word-spacing:normal;text-transform:none;direction:ltr;block-progression:tb;writing-mode:lr-tb;baseline-shift:baseline;text-anchor:start;white-space:normal;clip-rule:nonzero;display:inline;overflow:visible;visibility:visible;opacity:1;isolation:auto;mix-blend-mode:normal;color-interpolation:sRGB;color-interpolation-filters:linearRGB;solid-color:#000000;solid-opacity:1;fill:#deaa87;fill-opacity:1;fill-rule:evenodd;stroke:none;stroke-width:1.0629921;stroke-linecap:butt;stroke-linejoin:miter;stroke-miterlimit:4;stroke-dasharray:none;stroke-dashoffset:0;stroke-opacity:1;color-rendering:auto;image-rendering:auto;shape-rendering:auto;text-rendering:auto;enable-background:accumulate"
       d="m 52.517578,9.4863281 c -0.833,0.059119 -1.478074,0.450008 -1.875,0.9746099 -0.396926,0.524599 -0.549141,1.234434 -0.558955,1.827763 -0.0076,0.460566 0.0336,0.977209 0.161752,1.472005 0.210854,0.814148 0.524449,0.874567 0.533952,0.238424 0.01398,-0.935882 0.05133,-1.21707 0.118413,-1.661241 0.07166,-0.47444 0.208371,-1.015237 0.443359,-1.325811 0.234988,-0.310572 0.713876,-0.573987 1.28248,-0.614342 0.659149,-0.04678 0.992255,0.373619 1.313923,0.854215 0.321668,0.480597 0.518264,1.177564 0.597656,1.759766 0.182675,1.339592 -0.563385,2.886466 -0.714844,3.185547 -0.55642,-0.02034 -0.676127,0.03737 -1.096619,0.149498 -0.44741,0.119309 -0.633825,0.821928 0.380304,0.702619 0.491333,-0.0578 0.904915,0.05166 1.392468,0.119315 0.429336,0.05958 0.702349,0.141423 1.362742,0.537659 0.44741,0.268446 0.571981,0.04072 0.194637,-0.376809 -0.363932,-0.402693 -0.908388,-0.801992 -1.436101,-0.96875 0.325068,-0.684917 1.167005,-2.050017 0.970148,-3.49361 -0.094,-0.68934 -0.303656,-1.513895 -0.767579,-2.207032 C 54.356388,9.9670201 53.553667,9.4127954 52.517578,9.4863281 Z"
       id="path4171"
       inkscape:connector-curvature="0"
       sodipodi:nodetypes="sssssssssscssssscsss" />
    <path
       style="color:#000000;font-style:normal;font-variant:normal;font-weight:normal;font-stretch:normal;font-size:medium;line-height:normal;font-family:sans-serif;text-indent:0;text-align:start;text-decoration:none;text-decoration-line:none;text-decoration-style:solid;text-decoration-color:#000000;letter-spacing:normal;word-spacing:normal;text-transform:none;direction:ltr;block-progression:tb;writing-mode:lr-tb;baseline-shift:baseline;text-anchor:start;white-space:normal;clip-rule:nonzero;display:inline;overflow:visible;visibility:visible;opacity:1;isolation:auto;mix-blend-mode:normal;color-interpolation:sRGB;color-interpolation-filters:linearRGB;solid-color:#000000;solid-opacity:1;fill:#deaa87;fill-opacity:1;fill-rule:evenodd;stroke:none;stroke-width:1.0629921;stroke-linecap:butt;stroke-linejoin:miter;stroke-miterlimit:4;stroke-dasharray:none;stroke-dashoffset:0;stroke-opacity:1;color-rendering:auto;image-rendering:auto;shape-rendering:auto;text-rendering:auto;enable-background:accumulate"
       d="m 49.699219,14.617188 c -1.054078,0.105815 -1.719595,0.958561 -1.918548,1.53055 -0.238619,0.686029 0.08018,0.939666 0.57229,0.264227 0.286956,-0.393857 0.697647,-0.833459 1.511382,-0.915148 0.599934,-0.06023 0.991112,0.183762 1.183762,0.427373 0.19265,0.243609 0.265994,0.745868 0.231891,1.212529 -0.03,0.410488 -0.358898,0.941692 -0.688199,1.316406 -0.329301,0.374714 -0.608786,0.583675 -1.19143,0.607952 -0.715856,0.02983 -0.490335,0.623056 0.01722,0.642965 0.805693,0.0316 1.516026,-0.170613 2.032697,-0.758536 0.516671,-0.587924 0.695042,-1.10197 0.741126,-1.732615 0.04793,-0.655908 -0.07183,-1.330814 -0.488281,-1.857422 -0.41645,-0.526608 -1.140305,-0.824976 -2.00391,-0.738281 z"
       id="path4173"
       inkscape:connector-curvature="0"
       sodipodi:nodetypes="sssssssssssss" />
    <path
       style="fill:#ffdd55;fill-opacity:1;fill-rule:evenodd;stroke:#ff00ff;stroke-width:0.29055116;stroke-linecap:butt;stroke-linejoin:miter;stroke-miterlimit:4;stroke-dasharray:none;stroke-opacity:1"
       d="m 39.884427,19.476324 c 0.520833,0.182162 1.041667,0.282313 1.5625,-0.4375 l -2.125,-3.6875 -0.375,-3.0625 1.1875,-2.4375004 c 1.497437,0.7185874 3.225599,0.5142714 4.875,0.6250004 2.07774,-0.287614 4.182283,-0.4948173 5.9375,-1.7500004 l 2.625,-1.6250004 2.5,1.5625004 0.5,1.3125 -0.5,1.5937504 c 0.913241,0.890296 1.081476,1.507591 1.625,2.25 0.645609,-0.274904 1.034434,-1.234564 1.4375,-2.15625 l -0.5625,-4.1250008 c -0.361467,-1.2761554 -1.470745,-2.3861308 -2.5625,-3.5 -1.725289,-0.7446765 -3.372623,-1.8011764 -5.25,-1.9375 l -2.3125,0.5 -0.875,1 -2.75,-1.125 c -2.700598,-0.050002 -4.135872,0.7052026 -6,1.1875 -1.555669,0.4394382 -2.80441,1.9019656 -4.125,3.125 -1.414367,1.6549183 -1.24697,2.944814 -1.6875,4.3750008 -0.399405,2.91623 0.573311,5.466562 1.375,8.0625 0.490438,0.836554 1.238905,1.74683 2.3125,2.75 0,0 0.875,-0.125 0.8125,-0.375 -0.0625,-0.25 -1.5,-2.375 -1.5,-2.375 -0.212906,-0.820412 -0.07447,-1.49025 0.875,-1.8125 l 1.375,-0.0625 c 0.817944,0.601834 1.390348,1.273184 1.625,2.125 z"
       id="path4202"
       inkscape:connector-curvature="0"
       sodipodi:nodetypes="ccccccccccccccccccccccccscccc" />
    <path
       style="color:#000000;font-style:normal;font-variant:normal;font-weight:normal;font-stretch:normal;font-size:medium;line-height:normal;font-family:sans-serif;text-indent:0;text-align:start;text-decoration:none;text-decoration-line:none;text-decoration-style:solid;text-decoration-color:#000000;letter-spacing:normal;word-spacing:normal;text-transform:none;direction:ltr;block-progression:tb;writing-mode:lr-tb;baseline-shift:baseline;text-anchor:start;white-space:normal;clip-rule:nonzero;display:inline;overflow:visible;visibility:visible;opacity:1;isolation:auto;mix-blend-mode:normal;color-interpolation:sRGB;color-interpolation-filters:linearRGB;solid-color:#000000;solid-opacity:1;fill:#d35f5f;fill-opacity:1;fill-rule:evenodd;stroke:none;stroke-width:1.0629921;stroke-linecap:butt;stroke-linejoin:miter;stroke-miterlimit:4;stroke-dasharray:none;stroke-dashoffset:0;stroke-opacity:1;color-rendering:auto;image-rendering:auto;shape-rendering:auto;text-rendering:auto;enable-background:accumulate"
       d="m 54.22814,20.949662 c -0.39076,0.01881 -0.784609,-0.159185 -0.992753,-0.197737 -0.395317,-0.07322 -0.258275,0.236779 0.01874,0.359103 0.306642,0.135405 0.37856,0.158416 0.642199,0.242781 0,0 -0.195764,0.601337 -0.475302,1.198569 -0.279536,0.597231 -0.813797,1.123921 -1.989742,1.51754 -0.516168,0.172774 -1.42681,0.286166 -2.276663,0.06325 -0.849854,-0.222912 -1.688305,-0.656268 -1.688305,-0.656268 0.08436,-0.179274 0.103529,-0.527817 0.0967,-0.82719 -0.0069,-0.301225 -0.294531,-0.430043 -0.326773,-0.0079 -0.01601,0.209637 -0.09363,0.605647 -0.251704,0.931455 -0.212825,0.438664 -0.590919,0.59962 -0.759523,0.606901 -0.391951,0.01693 -0.353457,0.356887 0.07323,0.338907 0.481325,-0.02028 0.813283,-0.316547 1.004056,-0.503309 0.23088,0.08138 0.843444,0.475632 1.531731,0.732255 0.863236,0.321851 1.928754,0.483416 2.771485,0.28125 1.508106,-0.361786 2.125757,-1.177027 2.509959,-1.997879 0.287106,-0.613404 0.314595,-1.392051 0.330215,-1.642185 0.290445,-0.05342 0.794475,-0.265823 0.943097,-0.547044 0.182308,-0.344961 -0.02483,-0.501326 -0.29509,-0.201243 -0.100607,0.11171 -0.273235,0.280245 -0.865552,0.308758 z"
       id="path4175"
       inkscape:connector-curvature="0"
       sodipodi:nodetypes="csscssscssssscssscsssc" />
    <path
       style="fill:url(#pattern5685-6);fill-opacity:1;fill-rule:evenodd;stroke:#ff00ff;stroke-width:0.29055116;stroke-linecap:butt;stroke-linejoin:miter;stroke-miterlimit:4;stroke-dasharray:none;stroke-opacity:1;opacity:0.186"
       d="m 39.884428,19.476324 c 0.520833,0.182161 1.041667,0.282312 1.5625,-0.4375 l -2.125,-3.6875 -0.375,-3.0625 1.1875,-2.4375003 c 1.497437,0.7185873 3.225599,0.5142713 4.874999,0.6250003 2.07774,-0.287614 4.182283,-0.4948173 5.9375,-1.7500002 l 2.624999,-1.6250002 2.5,1.5625002 0.5,1.3124998 -0.5,1.5937504 c 0.913241,0.890296 1.081476,1.507591 1.625,2.25 0.645609,-0.274904 1.034434,-1.234564 1.4375,-2.15625 l -0.5625,-4.1250005 C 58.210459,6.2626683 57.101181,5.152693 56.009426,4.0388239 54.284137,3.2941475 52.636804,2.2376477 50.759427,2.1013242 l -2.3125,0.4999999 -0.875,0.9999999 -2.75,-1.1249999 c -2.700597,-0.050002 -4.135871,0.7052025 -5.999999,1.1874999 -1.555668,0.4394381 -2.804409,1.9019654 -4.125,3.1249996 -1.414366,1.6549181 -1.246969,2.9448137 -1.687499,4.3750004 -0.399405,2.91623 0.573311,5.466562 1.374999,8.0625 0.490438,0.836553 1.238906,1.746829 2.312501,2.749999 0,0 0.875,-0.125 0.8125,-0.375 -0.0625,-0.25 -1.5,-2.374999 -1.5,-2.374999 -0.212906,-0.820412 -0.07447,-1.49025 0.875,-1.8125 l 1.374999,-0.0625 c 0.817944,0.601834 1.390348,1.273184 1.625,2.125 z"
       id="path4202-7"
       inkscape:connector-curvature="0"
       sodipodi:nodetypes="ccccccccccccccccccccccccscccc" />
    <path
       style="color:#000000;font-style:normal;font-variant:normal;font-weight:normal;font-stretch:normal;font-size:medium;line-height:normal;font-family:sans-serif;text-indent:0;text-align:start;text-decoration:none;text-decoration-line:none;text-decoration-style:solid;text-decoration-color:#000000;letter-spacing:normal;word-spacing:normal;text-transform:none;direction:ltr;block-progression:tb;writing-mode:lr-tb;baseline-shift:baseline;text-anchor:start;white-space:normal;clip-rule:nonzero;display:inline;overflow:visible;visibility:visible;opacity:1;isolation:auto;mix-blend-mode:normal;color-interpolation:sRGB;color-interpolation-filters:linearRGB;solid-color:#000000;solid-opacity:1;fill:#aa8800;fill-opacity:1;fill-rule:evenodd;stroke:none;stroke-width:1.77165353;stroke-linecap:butt;stroke-linejoin:miter;stroke-miterlimit:4;stroke-dasharray:none;stroke-dashoffset:0;stroke-opacity:1;color-rendering:auto;image-rendering:auto;shape-rendering:auto;text-rendering:auto;enable-background:accumulate"
       d="m 50.613281,1.6582031 c -0.74217,-0.031538 -1.441779,0.052477 -1.912109,0.3398438 -0.69778,0.4263353 -1.053331,0.9959836 -1.22461,1.0605469 -0.175398,-0.029507 -1.002562,-0.858479 -2.185546,-0.9863282 -1.30133,-0.1406391 -3.64469,0.014272 -4.730469,0.2851563 -2.973566,0.7418567 -5.259304,2.1062021 -6.853516,4.9609375 -1.728137,3.0945536 -1.458762,7.0202696 -0.433593,10.1718746 0.607627,1.867988 1.662745,3.241795 2.949218,4.517578 0.394535,0.391257 0.607611,0.481359 1.232422,0.550782 0.07977,-0.750336 -0.331098,-0.891203 -0.527718,-1.434293 -0.19324,-0.631912 -0.600962,-0.903738 -0.669186,-1.910699 -0.137299,-0.86087 0.193457,-1.33 0.882451,-1.697977 0.406104,-0.216892 1.254063,-0.01786 1.480469,0.345703 l 1.011718,1.625 c 0.1847,0.296589 1.20197,0.775852 1.634766,0.490234 0.646636,-0.426739 0.736193,-0.887497 0.509766,-1.210937 -0.869582,-1.242157 -1.625447,-2.553122 -1.927735,-3.603516 -0.222146,-0.771917 -0.368636,-1.509853 -0.333984,-2.183593 0.0335,-0.651202 0.121895,-1.682269 0.726563,-2.664063 0.51272,0.163522 1.039745,0.306904 1.605468,0.404297 2.442914,0.420563 5.041551,0.138766 7.365235,-0.677734 0.677286,-0.2379878 1.805073,-0.8028095 2.810547,-1.3203129 0.8755,-0.4506095 1.436942,-1.1123657 1.61914,-1.2109375 0.456594,0.2533075 0.968606,0.6695842 1.416016,0.9082032 0.485478,0.2589214 0.961149,0.8522366 1.066406,1.4042968 0.152599,0.8003674 -0.176692,1.1608064 -0.388672,1.7675784 0.962343,0.760996 1.491485,1.909822 1.882813,2.615234 6.31e-4,0.02619 -0.0031,0.04527 -0.002,0.07227 0.01056,-0.0078 0.01883,-0.0156 0.0293,-0.02344 0.003,0.0053 0.0087,0.01424 0.01172,0.01953 l 0,-0.0293 C 59.071185,13.183052 59.617743,12.16989 59.662067,10.640622 59.711615,8.9325712 59.328946,7.6643143 58.505859,6.28125 57.055609,3.8443401 55.981582,3.3969462 53.820312,2.375 53.205549,2.0843124 51.850231,1.710766 50.613281,1.6582031 Z m 0.414063,0.9941407 c 0.970847,0.073406 1.843964,0.4891943 2.351562,0.71875 1.504705,0.680486 3.303859,1.8260126 4.054688,3.25 0.482879,0.9158052 0.791023,2.5682582 0.904297,4.0390622 0.114411,1.485565 -0.462286,1.86134 -0.65625,2.814453 l 0.0039,-0.138671 C 57.206867,12.455137 56.983091,12.14037 56.402344,11.462891 56.572094,10.894994 57.15548,10.141082 57.007812,9.5390625 56.824086,8.790021 56.429318,8.0644671 55.638672,7.7226562 54.837587,7.3763324 54.295056,7.0243761 53.625,6.6699219 c -0.765465,0.410598 -1.468388,0.7864056 -2.087891,1.1054687 -0.993208,0.511533 -2.163475,1.0810174 -2.677734,1.2617188 -2.160332,0.7591015 -4.658631,1.2682926 -6.892578,0.84375 -1.277786,-0.2428325 -3.256093,-0.9068816 -4.210938,-1.4316406 0.731532,-0.4252279 2.19901,-1.4241584 3.132813,-1.75 0.807824,-0.2818826 3.126786,-0.8070868 3.957031,-0.9277344 2.476542,-0.3598803 2.631821,-0.6633184 1.511719,-0.7128906 -0.373368,-0.016524 -0.887675,-0.00439 -1.50586,0.042969 -1.279164,0.097993 -2.775177,0.2950592 -3.804687,0.6542969 -1.492299,0.5207231 -2.219539,1.3604792 -3.501953,2.078125 -0.253137,0.1416565 -1.162109,0.390625 -1.16211,0.390625 0,0 0.729498,0.6082035 0.980469,0.7539062 0.751169,0.4681145 1.529975,0.8526303 2.357422,1.1601561 -0.867919,1.092208 -1.009506,1.717235 -1.054687,2.595703 -0.04803,0.933886 0.252887,1.989607 0.330078,2.365234 0.246118,1.19765 1.356747,2.765154 2.015625,3.769532 -0.09544,0.343797 -0.322604,0.360693 -0.595703,0.300781 -0.486873,-0.24021 -0.877879,-1.146333 -1.332032,-1.654297 -0.141367,-0.158118 -0.677889,-0.647943 -1.242187,-0.761719 -0.833157,-0.167984 -1.304254,-0.03287 -1.724609,0.535156 -0.690788,0.933462 -0.489605,1.708528 -0.484376,1.789063 0.01672,0.257517 0.511259,1.073216 0.804625,1.466463 0.533339,1.171898 0.03543,1.035843 -0.336598,0.298607 -0.865605,-1.034507 -1.538098,-2.624887 -1.987558,-3.993586 -0.97065,-2.95583 -0.830587,-6.365173 0.455078,-8.7578118 1.193339,-2.2208177 4.071742,-3.9533827 6.716797,-4.6132813 0.446204,-0.1113207 2.309539,-0.4295996 3.548828,-0.3007812 0.850792,0.088436 1.992654,0.5193655 2.806641,1.0136718 0.532691,-0.2198712 1.19954,-0.978745 1.591797,-1.1875 0.594822,-0.3165582 1.212414,-0.3956063 1.794922,-0.3515624 z m 1.998047,2.5878906 c -0.130685,-0.00298 -0.359153,0.1120725 -0.640625,0.3652344 -0.420332,0.3780545 -1.112726,0.7483627 -1.941407,1.2148437 -1.119022,0.6299198 -2.587363,1.0275941 -3.466797,1.1816406 -0.744604,0.1304294 -2.047973,0.2242629 -3.146484,0.054687 -1.098511,-0.1695755 -1.525799,-0.2456634 -2.21875,-0.3476562 -0.628182,-0.09246 -0.759517,0.1556336 -0.03516,0.4980468 0.64441,0.3046193 1.156115,0.4851279 2.060547,0.6914063 1.127633,0.257185 2.496449,0.3302839 3.523437,0.1503906 1.161815,-0.2035104 2.546015,-0.6599961 3.640625,-1.4140625 0.838404,-0.5775686 1.266031,-0.8584565 1.865235,-1.4980468 0.523877,-0.5591877 0.577182,-0.8915126 0.359375,-0.8964844 z"
       id="path4177"
       inkscape:connector-curvature="0"
       sodipodi:nodetypes="sscssssscccsccsssscssscssccccccsssssssscccsscssscsssssscccssccssssccsssscssssssssssssss" />
    <path
       style="color:#000000;font-style:normal;font-variant:normal;font-weight:normal;font-stretch:normal;font-size:medium;line-height:normal;font-family:sans-serif;text-indent:0;text-align:start;text-decoration:none;text-decoration-line:none;text-decoration-style:solid;text-decoration-color:#000000;letter-spacing:normal;word-spacing:normal;text-transform:none;direction:ltr;block-progression:tb;writing-mode:lr-tb;baseline-shift:baseline;text-anchor:start;white-space:normal;clip-rule:nonzero;display:inline;overflow:visible;visibility:visible;opacity:1;isolation:auto;mix-blend-mode:normal;color-interpolation:sRGB;color-interpolation-filters:linearRGB;solid-color:#000000;solid-opacity:1;fill:#deaa87;fill-opacity:1;fill-rule:evenodd;stroke:none;stroke-width:1.77165353;stroke-linecap:butt;stroke-linejoin:miter;stroke-miterlimit:4;stroke-dasharray:none;stroke-dashoffset:0;stroke-opacity:1;color-rendering:auto;image-rendering:auto;shape-rendering:auto;text-rendering:auto;enable-background:accumulate"
       d="m 57.375506,14.806544 c 0.352821,1.236404 0.403067,1.964198 0.202981,3.271701 0.492444,0.303123 0.496423,0.851427 0.421531,1.206148 -0.823834,3.902043 -1.143118,3.891059 -1.992338,5.579938 -0.421552,0.838359 -1.278566,1.486522 -1.962926,1.911044 -0.413493,1.580415 -2.587463,1.914579 -3.854997,1.097879 -0.459062,-0.34057 -1.493802,-0.619344 -2.041423,-0.79918 -1.076571,-0.35354 -2.06292,-0.509205 -3.407211,-0.491754 -0.581357,0.0075 -0.590747,0.320384 0.05838,0.48411 0.627041,0.158156 1.670455,0.301496 2.417413,0.683232 0.30877,1.007178 -0.07057,1.555614 -0.461636,2.096235 0.524231,0.10412 1.215032,0.459767 1.347399,1.089658 0.120263,0.572295 -1.707889,2.173523 -2.740617,2.132314 -1.28886,-0.05143 -2.78999,-1.287252 -2.930788,-2.739661 -0.124033,-1.279473 0.0979,-2.492295 -0.03233,-3.832593 -0.05719,-0.588534 -0.373675,-1.241087 -0.659116,-1.874353 -0.280567,-0.622452 -1.186921,-1.32388 -1.378199,-1.091158 -0.272925,0.275727 0.207128,0.682266 0.5561,1.231482 0.428558,0.67447 0.678412,1.231134 0.593405,2.145531 l -0.220166,2.368274 c -0.02163,0.232656 -0.04234,1.658854 0.446239,2.399887 1.173209,1.779422 3.326443,3.171947 5.268981,1.994494 1.173933,-0.71157 2.415701,-1.942885 2.169121,-3.328393 -0.182855,-0.564099 -0.923332,-0.477696 -1.340346,-0.705273 0.26316,-0.354181 0.383489,-0.658558 0.387174,-1.14994 0.598266,0.01584 1.13879,0.213227 1.767007,0.632644 0.718418,0.63756 1.855175,0.595413 2.596565,0.525304 0.83753,-0.0792 1.993498,-1.327303 2.150947,-2.399293 0.706086,-0.253039 1.306125,-0.791168 1.773986,-1.489145 0.741121,-1.105639 1.260947,-2.890914 2.165378,-5.382613 0.445793,-1.228156 0.328131,-1.882539 -0.42385,-2.555838 0.07182,-1.343203 -0.237461,-2.581586 -0.395435,-3.187192 -0.0387,-0.270331 -0.517385,-0.481312 -0.481229,0.176511 z m -21.721237,4.442965 c 0.455914,1.122601 1.532859,2.155632 1.714456,3.383678 0.190261,1.28664 1.693395,1.850259 2.636975,0.759936 0.63894,-0.407861 0.941691,-0.626941 0.608254,-0.939036 -0.486926,-0.474991 -1.874397,1.556783 -2.230964,0.175084 -0.328647,-1.273506 -1.177847,-2.138383 -1.800935,-3.257041 -0.635339,-1.140653 0.903424,-2.133715 1.843806,-1.288676 0.728395,0.654544 1.104581,1.752115 1.733297,2.014605 0.666883,-0.138807 0.07212,-0.813984 -0.350013,-1.59065 -0.60212,-1.107814 -0.69823,-1.730197 -2.155408,-2.055973 -1.457177,-0.325775 -2.490698,1.588516 -1.999468,2.798073 z"
       id="path4185"
       inkscape:connector-curvature="0"
       sodipodi:nodetypes="ccssccsssccssssscsssssccccscsscccssccssscsss" />
    <path
       style="color:#000000;display:inline;overflow:visible;visibility:visible;opacity:1;fill:#000000;fill-opacity:1;fill-rule:nonzero;stroke:none;stroke-width:0.1634804;stroke-linecap:round;stroke-linejoin:bevel;stroke-miterlimit:4;stroke-dasharray:none;stroke-dashoffset:9.38976383;stroke-opacity:1;marker:none;enable-background:accumulate"
       d="m 45.002381,15.400442 c 0.271857,0.402243 0.229902,0.931526 -0.09939,1.253881 -0.329293,0.322358 -0.850337,0.344209 -1.234362,0.05177 -0.384026,-0.292438 -0.519553,-0.814278 -0.321073,-1.236247 0.198482,-0.42197 0.67336,-0.621579 1.124995,-0.472878 -0.319068,0.37654 -0.418849,0.69178 -0.253537,0.932915 0.117768,-0.388592 0.398676,-0.5358 0.78337,-0.529442 z"
       id="path4223"
       inkscape:connector-curvature="0"
       sodipodi:nodetypes="csssccc" />
    <path
       style="color:#000000;display:inline;overflow:visible;visibility:visible;opacity:1;fill:#000000;fill-opacity:1;fill-rule:nonzero;stroke:none;stroke-width:0.1634804;stroke-linecap:round;stroke-linejoin:bevel;stroke-miterlimit:4;stroke-dasharray:none;stroke-dashoffset:9.38976383;stroke-opacity:1;marker:none;enable-background:accumulate"
       d="m 53.395889,12.115297 c 0.331418,0.354778 0.372754,0.88411 0.09793,1.253996 -0.274827,0.36989 -0.786043,0.472958 -1.211077,0.244175 -0.425035,-0.228782 -0.640505,-0.723006 -0.510459,-1.170823 0.130048,-0.447818 0.567866,-0.719237 1.037199,-0.642997 -0.256255,0.421806 -0.305508,0.748772 -0.104519,0.961087 0.05555,-0.402229 0.309977,-0.591557 0.690932,-0.645439 z"
       id="path4223-5"
       inkscape:connector-curvature="0"
       sodipodi:nodetypes="csssccc" />
    <path
       style="color:#000000;font-style:normal;font-variant:normal;font-weight:normal;font-stretch:normal;font-size:medium;line-height:normal;font-family:sans-serif;text-indent:0;text-align:start;text-decoration:none;text-decoration-line:none;text-decoration-style:solid;text-decoration-color:#000000;letter-spacing:normal;word-spacing:normal;text-transform:none;direction:ltr;block-progression:tb;writing-mode:lr-tb;baseline-shift:baseline;text-anchor:start;white-space:normal;clip-rule:nonzero;display:inline;overflow:visible;visibility:visible;opacity:1;isolation:auto;mix-blend-mode:normal;color-interpolation:sRGB;color-interpolation-filters:linearRGB;solid-color:#000000;solid-opacity:1;fill:#deaa87;fill-opacity:1;fill-rule:evenodd;stroke:none;stroke-width:1px;stroke-linecap:butt;stroke-linejoin:miter;stroke-miterlimit:4;stroke-dasharray:none;stroke-dashoffset:0;stroke-opacity:1;color-rendering:auto;image-rendering:auto;shape-rendering:auto;text-rendering:auto;enable-background:accumulate"
       d="m 37.997011,19.241632 c -1.048403,0.277852 0.227806,0.546488 0.560437,1.325922 0.317988,0.745124 -0.420281,1.60054 0.775307,1.257726 0.443305,-0.12711 0.170399,-1.018074 -0.0014,-1.495279 -0.185984,-0.516662 -0.768995,-1.238204 -1.334361,-1.088369 z"
       id="path4193"
       inkscape:connector-curvature="0"
       sodipodi:nodetypes="sssss" />
    <path
       style="color:#000000;font-style:normal;font-variant:normal;font-weight:normal;font-stretch:normal;font-size:medium;line-height:normal;font-family:sans-serif;text-indent:0;text-align:start;text-decoration:none;text-decoration-line:none;text-decoration-style:solid;text-decoration-color:#000000;letter-spacing:normal;word-spacing:normal;text-transform:none;direction:ltr;block-progression:tb;writing-mode:lr-tb;baseline-shift:baseline;text-anchor:start;white-space:normal;clip-rule:nonzero;display:inline;overflow:visible;visibility:visible;opacity:1;isolation:auto;mix-blend-mode:normal;color-interpolation:sRGB;color-interpolation-filters:linearRGB;solid-color:#000000;solid-opacity:1;fill:#e9c6af;fill-opacity:1;fill-rule:evenodd;stroke:none;stroke-width:1px;stroke-linecap:butt;stroke-linejoin:miter;stroke-miterlimit:4;stroke-dasharray:none;stroke-dashoffset:0;stroke-opacity:1;color-rendering:auto;image-rendering:auto;shape-rendering:auto;text-rendering:auto;enable-background:accumulate"
       d="m 43.596384,73.04401 c -0.126967,-0.344589 0.02271,-1.318007 -0.330426,-1.217227 -0.456991,0.130418 -0.343421,0.977272 -0.161922,1.416485 0.145204,0.351381 0.658353,0.926832 0.891724,0.711199 0.156459,-0.144567 -0.25361,-0.514843 -0.399376,-0.910457 z"
       id="path6456"
       inkscape:connector-curvature="0"
       sodipodi:nodetypes="sssss" />
    <path
       style="color:#000000;font-style:normal;font-variant:normal;font-weight:normal;font-stretch:normal;font-size:medium;line-height:normal;font-family:sans-serif;text-indent:0;text-align:start;text-decoration:none;text-decoration-line:none;text-decoration-style:solid;text-decoration-color:#000000;letter-spacing:normal;word-spacing:normal;text-transform:none;direction:ltr;block-progression:tb;writing-mode:lr-tb;baseline-shift:baseline;text-anchor:start;white-space:normal;clip-rule:nonzero;display:inline;overflow:visible;visibility:visible;opacity:1;isolation:auto;mix-blend-mode:normal;color-interpolation:sRGB;color-interpolation-filters:linearRGB;solid-color:#000000;solid-opacity:1;fill:#e9c6af;fill-opacity:1;fill-rule:evenodd;stroke:none;stroke-width:1px;stroke-linecap:butt;stroke-linejoin:miter;stroke-miterlimit:4;stroke-dasharray:none;stroke-dashoffset:0;stroke-opacity:1;color-rendering:auto;image-rendering:auto;shape-rendering:auto;text-rendering:auto;enable-background:accumulate"
       d="m 44.990837,72.573067 c 0.102586,0.352616 -0.11472,1.313201 0.244593,1.237334 0.464985,-0.09818 0.410847,-0.950896 0.260471,-1.401714 -0.120305,-0.360666 -0.592004,-0.970556 -0.839867,-0.771751 -0.166176,0.133285 0.217027,0.531301 0.334803,0.936131 z"
       id="path6456-7"
       inkscape:connector-curvature="0"
       sodipodi:nodetypes="sssss"
       inkscape:transform-center-x="0.26516504"
       inkscape:transform-center-y="-0.088388345" />
  </g>
</svg>
